<svg width="542" height="609" viewBox="0 0 542 609" fill="none" xmlns="http://www.w3.org/2000/svg">
<path d="M538.65 395.3C531.432 435.945 510.673 472.952 479.75 500.3C469.074 509.714 457.521 518.086 445.25 525.3C402 551.45 348.4 567.3 292.6 580.3L283.05 582.45C274.756 584.334 266.248 585.108 257.75 584.75C169 581.05 108.55 449.5 89.7501 311.05C73.3501 187.8 100.8 48.2001 223.7 41.9001C269.85 39.6001 323.7 62.6001 373.7 99.6001C377.3 102.25 380.9 105 384.45 107.8L386.65 109.55C480 183.95 556.25 304.6 538.65 395.3Z" fill="#FDE6D6"/>
<path d="M103.05 511.35C110 525.4 112.55 543.2 98.6003 548.9C83.0003 555.3 58.1003 545 50.9003 521.55C46.2503 506.55 47.8503 485.65 60.9003 477.6C71.5503 470.7 94.7503 494.15 103.05 511.35Z" fill="#F5F9FD"/>
<path d="M484.75 196.25C478.5 190.8 473.5 182.7 478.8 177.25C484.1 171.8 498.4 171.35 506.8 181.3C512.15 187.65 515.85 198.05 511.8 204.4C508.2 209.8 492.55 202.9 484.75 196.25Z" fill="#FFAD69"/>
<path fill-rule="evenodd" clip-rule="evenodd" d="M189.751 115.55C186.451 115.2 183.101 114.95 179.751 114.8C179.485 114.876 179.201 114.776 179.042 114.551C178.882 114.326 178.882 114.024 179.042 113.799C179.201 113.574 179.485 113.474 179.751 113.55C182.748 113.55 185.828 113.88 188.841 114.203C189.145 114.235 189.448 114.268 189.751 114.3C189.92 114.312 190.076 114.394 190.181 114.528C190.286 114.661 190.329 114.833 190.301 115C190.259 115.285 190.035 115.509 189.751 115.55ZM140.251 119.15C139.98 119.129 139.747 118.953 139.651 118.7C139.554 118.355 139.756 117.997 140.101 117.9C143.251 117.05 146.551 116.3 150.101 115.65C150.26 115.605 150.431 115.627 150.573 115.713C150.715 115.798 150.815 115.938 150.851 116.1C150.912 116.444 150.692 116.775 150.351 116.85C147.051 117.5 143.801 118.25 140.651 119.1L140.251 119.15ZM219.351 121.15C222.551 122 225.751 122.9 228.951 123.9H229.401C229.732 123.9 230.001 123.631 230.001 123.3C230.001 122.969 229.732 122.7 229.401 122.7C226.151 121.65 222.901 120.75 219.751 119.9C219.571 119.839 219.374 119.859 219.211 119.955C219.047 120.051 218.934 120.213 218.901 120.4C218.857 120.724 219.044 121.036 219.351 121.15ZM121.401 125.95C121.171 125.931 120.965 125.8 120.851 125.6C120.706 125.282 120.838 124.907 121.151 124.75C124.151 123.4 127.251 122.1 130.451 120.95C130.603 120.885 130.775 120.886 130.926 120.952C131.077 121.019 131.195 121.144 131.251 121.3C131.357 121.617 131.206 121.963 130.901 122.1C127.751 123.25 124.651 124.55 121.701 125.9L121.401 125.95ZM238.501 127.05C241.601 128.15 244.751 129.35 247.851 130.55L248.301 130.6C248.632 130.6 248.901 130.331 248.901 130C248.901 129.669 248.632 129.4 248.301 129.4C245.201 128.2 242.051 127 238.901 125.9C238.585 125.816 238.253 125.961 238.101 126.25C238 126.581 238.176 126.932 238.501 127.05ZM104.101 135.95C103.901 135.964 103.709 135.868 103.601 135.7C103.488 135.587 103.424 135.434 103.424 135.275C103.424 135.115 103.488 134.963 103.601 134.85C106.351 132.9 109.151 131.05 112.051 129.4C112.345 129.293 112.673 129.411 112.832 129.68C112.991 129.95 112.936 130.294 112.701 130.5C109.851 132.15 107.001 133.95 104.351 135.85C104.291 135.896 104.223 135.929 104.151 135.95H104.101ZM265.951 138.5H266.251H266.301C266.508 138.493 266.697 138.38 266.801 138.2C266.868 138.054 266.874 137.888 266.818 137.737C266.761 137.587 266.647 137.465 266.501 137.4C263.501 135.95 260.451 134.6 257.351 133.25C257.205 133.182 257.038 133.176 256.888 133.233C256.737 133.289 256.616 133.403 256.551 133.55C256.406 133.868 256.538 134.243 256.851 134.4C259.901 135.7 263.001 137.1 265.951 138.5ZM89.0712 149.059C88.95 149.095 88.8202 149.092 88.7005 149.05C88.5876 148.937 88.5241 148.784 88.5241 148.625C88.5241 148.465 88.5876 148.313 88.7005 148.2C91.0505 145.75 93.7005 143.2 96.0005 141.25C96.252 141.009 96.649 141.009 96.9005 141.25C97.1418 141.501 97.1418 141.898 96.9005 142.15C94.4505 144.3 91.9005 146.6 89.7005 149C89.5148 149.128 89.2766 149.15 89.0712 149.059ZM301.551 157.55H301.251C298.451 155.8 295.551 154.1 292.651 152.55C292.463 152.434 292.352 152.226 292.358 152.006C292.365 151.785 292.489 151.585 292.683 151.481C292.878 151.377 293.113 151.384 293.301 151.5C294.816 152.362 296.332 153.252 297.833 154.133L297.833 154.133L297.834 154.133L297.834 154.134L297.834 154.134L297.834 154.134L297.836 154.135L297.839 154.136L297.843 154.139C299.211 154.942 300.567 155.738 301.901 156.5C302.014 156.613 302.077 156.765 302.077 156.925C302.077 157.084 302.014 157.237 301.901 157.35C301.813 157.459 301.688 157.53 301.551 157.55ZM76.2505 164.65H76.6005C76.8024 164.74 77.0388 164.701 77.2005 164.55C78.8304 161.907 80.5766 159.691 82.3368 157.457L82.3368 157.457C82.5745 157.155 82.8125 156.853 83.0505 156.55C83.1797 156.436 83.2537 156.272 83.2537 156.1C83.2537 155.928 83.1797 155.764 83.0505 155.65C82.9379 155.537 82.785 155.473 82.6255 155.473C82.466 155.473 82.3131 155.537 82.2005 155.65C80.1505 158.25 78.1505 160.95 76.2505 163.8C76.1376 163.913 76.0741 164.065 76.0741 164.225C76.0741 164.384 76.1376 164.537 76.2505 164.65ZM318.401 168.4C318.29 168.454 318.161 168.454 318.051 168.4L309.751 162.8C309.461 162.62 309.371 162.24 309.551 161.95C309.73 161.66 310.111 161.57 310.401 161.75C313.234 163.55 316.034 165.4 318.801 167.3C319.011 167.544 319.011 167.906 318.801 168.15C318.717 168.295 318.567 168.389 318.401 168.4ZM66.8005 181.9C66.6404 181.836 66.5157 181.706 66.4582 181.543C66.4008 181.38 66.4162 181.201 66.5005 181.05C67.9005 178 69.4505 175 71.0505 172.1C71.113 171.833 71.3367 171.633 71.6094 171.602C71.8822 171.571 72.1451 171.714 72.2665 171.961C72.3879 172.207 72.3414 172.503 72.1505 172.7C70.5505 175.55 69.0505 178.55 67.6005 181.6C67.5351 181.747 67.4136 181.861 67.2633 181.917C67.1129 181.974 66.9462 181.967 66.8005 181.9ZM350.051 192.4C350.179 192.45 350.322 192.45 350.451 192.4C350.591 192.408 350.73 192.373 350.851 192.3C350.964 192.187 351.027 192.034 351.027 191.875C351.027 191.715 350.964 191.563 350.851 191.45C349.051 190.068 347.397 188.708 345.767 187.367L345.766 187.367L345.763 187.364C344.858 186.619 343.96 185.881 343.051 185.15C342.774 184.998 342.428 185.067 342.23 185.314C342.033 185.56 342.042 185.913 342.251 186.15C344.184 187.531 345.926 188.983 347.676 190.441C348.46 191.095 349.246 191.75 350.051 192.4ZM59.7505 200.75C59.442 200.614 59.2739 200.278 59.3505 199.95C60.4005 196.7 61.5005 193.5 62.7005 190.45C62.8528 190.161 63.1849 190.016 63.5005 190.1C63.6562 190.156 63.7819 190.273 63.8482 190.424C63.9144 190.576 63.9153 190.748 63.8505 190.9C62.7005 193.9 61.6005 197.1 60.5505 200.3C60.4534 200.645 60.0956 200.846 59.7505 200.75ZM365.7 205.481C365.632 205.481 365.565 205.471 365.501 205.45C363.051 203.2 360.501 201 357.951 198.85C357.732 198.59 357.732 198.21 357.951 197.95C358.202 197.709 358.599 197.709 358.851 197.95L366.401 204.55C366.619 204.81 366.619 205.19 366.401 205.45C366.192 205.597 365.918 205.608 365.7 205.481ZM54.3309 219.888C54.4266 220.032 54.5795 220.127 54.7505 220.15C54.9404 220.165 55.1275 220.096 55.2622 219.962C55.397 219.827 55.4658 219.64 55.4505 219.45C56.1505 216.2 56.9005 212.9 57.7505 209.7C57.8163 209.371 57.6214 209.047 57.3005 208.95C57.1348 208.888 56.9501 208.902 56.7959 208.989C56.6416 209.076 56.5335 209.226 56.5005 209.4C56.3386 210.098 56.1767 210.79 56.016 211.477L56.016 211.477L56.016 211.477L56.0159 211.478L56.0159 211.478C55.3828 214.184 54.7689 216.808 54.2505 219.4C54.2059 219.567 54.2351 219.744 54.3309 219.888ZM394.301 233.55C394.157 233.614 393.994 233.614 393.851 233.55C391.601 231.1 389.251 228.55 386.951 226.3C386.709 226.048 386.709 225.651 386.951 225.4C387.211 225.182 387.59 225.182 387.851 225.4C388.843 226.436 389.845 227.509 390.844 228.579L390.845 228.579C392.161 229.989 393.472 231.393 394.751 232.7C394.992 232.951 394.992 233.348 394.751 233.6C394.599 233.627 394.443 233.61 394.301 233.55ZM50.8005 239.2C50.7702 239.542 51.0111 239.848 51.3505 239.9C51.6765 239.934 51.9766 239.719 52.0505 239.4C52.4505 235.95 52.9005 232.6 53.4005 229.4C53.4464 229.239 53.4165 229.066 53.3191 228.93C53.2218 228.793 53.0677 228.709 52.9005 228.7C52.7411 228.671 52.5768 228.708 52.4449 228.802C52.3131 228.896 52.2249 229.04 52.2005 229.2C51.6505 232.5 51.2005 235.85 50.8005 239.2ZM407.601 248.55C407.441 248.617 407.261 248.617 407.101 248.55L400.551 240.95C400.438 240.837 400.374 240.684 400.374 240.525C400.374 240.365 400.438 240.213 400.551 240.1C400.664 239.971 400.828 239.897 401.001 239.897C401.173 239.897 401.337 239.971 401.451 240.1C403.04 241.874 404.657 243.758 406.281 245.65C406.854 246.317 407.427 246.985 408.001 247.65C408.242 247.901 408.242 248.298 408.001 248.55C407.872 248.6 407.729 248.6 407.601 248.55ZM49.3076 259.657C49.4216 259.781 49.5823 259.851 49.7505 259.85C50.0738 259.854 50.3508 259.619 50.4005 259.3C50.461 257.949 50.5703 256.59 50.6792 255.236C50.8403 253.232 51.0005 251.239 51.0005 249.3C51.0041 248.949 50.7476 248.65 50.4005 248.6C50.2329 248.586 50.0671 248.643 49.9436 248.757C49.82 248.871 49.7499 249.032 49.7505 249.2C49.6968 249.91 49.6384 250.622 49.5798 251.336C49.3662 253.941 49.1505 256.57 49.1505 259.2C49.1365 259.368 49.1935 259.533 49.3076 259.657ZM420.301 264.2C420.142 264.273 419.959 264.273 419.801 264.2C417.751 261.5 415.701 258.85 413.651 256.3C413.538 256.187 413.474 256.034 413.474 255.875C413.474 255.715 413.538 255.563 413.651 255.45C413.764 255.321 413.928 255.247 414.101 255.247C414.273 255.247 414.437 255.321 414.551 255.45C415.159 256.226 415.777 256.993 416.4 257.766L416.401 257.766C417.824 259.533 419.275 261.333 420.701 263.35C420.942 263.601 420.942 263.998 420.701 264.25L420.301 264.2ZM49.1505 279.3C49.1505 279.631 49.4192 279.9 49.7505 279.9H49.8005C49.9687 279.901 50.1294 279.831 50.2435 279.707C50.3576 279.583 50.4145 279.418 50.4005 279.25V272.25V269.25C50.4011 269.082 50.3311 268.921 50.2075 268.807C50.0839 268.693 49.9181 268.636 49.7505 268.65C49.4192 268.65 49.1505 268.919 49.1505 269.25V272.25V279.3ZM431.751 280.5C431.573 280.565 431.378 280.565 431.201 280.5C429.401 277.8 427.501 275.05 425.551 272.25C425.438 272.137 425.374 271.984 425.374 271.825C425.374 271.665 425.438 271.513 425.551 271.4C425.802 271.159 426.199 271.159 426.451 271.4C428.451 274.15 430.351 276.95 432.151 279.65C432.361 279.894 432.361 280.256 432.151 280.5C432.023 280.556 431.878 280.556 431.751 280.5ZM441.851 297.2C441.946 297.387 442.14 297.504 442.351 297.5L442.701 297.2C442.813 297.087 442.877 296.934 442.877 296.775C442.877 296.615 442.813 296.463 442.701 296.35C441.251 293.5 439.501 290.65 437.701 287.75C437.456 287.539 437.095 287.539 436.851 287.75C436.632 288.01 436.632 288.39 436.851 288.65C437.81 290.36 438.824 292.07 439.838 293.78C440.514 294.92 441.19 296.06 441.851 297.2ZM50.5505 299.9C50.2377 299.901 49.9766 299.662 49.9505 299.35C49.9505 297.307 49.7701 295.265 49.5935 293.266C49.4761 291.937 49.3604 290.628 49.3005 289.35C49.2995 289.01 49.5612 288.726 49.9005 288.7C50.0681 288.686 50.2339 288.743 50.3575 288.857C50.4811 288.971 50.5511 289.132 50.5505 289.3C50.5505 291.631 50.7563 294.013 50.9649 296.429C51.0471 297.381 51.1298 298.338 51.2005 299.3C51.2145 299.468 51.1576 299.633 51.0435 299.757C50.9294 299.881 50.7687 299.951 50.6005 299.95L50.5505 299.9ZM451.251 314.8C451.381 315.008 451.605 315.139 451.851 315.15V315.1C452.163 314.943 452.295 314.568 452.151 314.25C450.701 311.3 449.151 308.3 447.551 305.3C447.377 305.007 447.006 304.897 446.701 305.05C446.49 305.294 446.49 305.656 446.701 305.9C448.301 308.9 449.851 311.9 451.251 314.8ZM52.6505 319.85C52.3272 319.854 52.0502 319.619 52.0005 319.3C51.6005 316 51.2005 312.65 50.8505 309.3C50.8218 309.133 50.8653 308.961 50.9701 308.828C51.0749 308.694 51.2313 308.612 51.4005 308.6C51.7425 308.57 52.049 308.811 52.1005 309.15C52.4505 312.45 52.8505 315.8 53.2505 319.15C53.2792 319.317 53.2358 319.489 53.131 319.622C53.0261 319.755 52.8698 319.838 52.7005 319.85H52.6505ZM459.151 333.1C459.251 333.342 459.488 333.5 459.751 333.5L459.951 333.45C460.106 333.394 460.232 333.277 460.298 333.125C460.364 332.974 460.365 332.802 460.301 332.65C459.151 329.55 457.851 326.45 456.501 323.35C456.344 323.038 455.968 322.905 455.651 323.05C455.504 323.115 455.39 323.237 455.333 323.387C455.277 323.538 455.283 323.704 455.351 323.85C456.701 326.95 457.951 330.05 459.151 333.1ZM55.6505 339.65C55.3546 339.654 55.0998 339.442 55.0505 339.15C54.4505 335.85 53.9005 332.5 53.4005 329.15C53.3719 328.977 53.4141 328.8 53.5176 328.659C53.6211 328.518 53.7772 328.424 53.9505 328.4C54.2925 328.37 54.599 328.611 54.6505 328.95C55.0276 331.439 55.4332 333.928 55.8457 336.46C55.9802 337.285 56.1154 338.114 56.2505 338.95C56.3124 339.294 56.0916 339.625 55.7505 339.7L55.6505 339.65ZM465.851 352C465.9 352.292 466.155 352.504 466.451 352.5L466.601 352.45C466.762 352.415 466.903 352.314 466.988 352.172C467.073 352.03 467.096 351.859 467.051 351.7C466.151 348.55 465.151 345.3 464.101 342.1C464.056 341.935 463.943 341.797 463.79 341.721C463.637 341.645 463.459 341.637 463.301 341.7C463.136 341.745 462.998 341.858 462.922 342.01C462.845 342.163 462.838 342.341 462.901 342.5C463.951 345.65 464.951 348.9 465.851 352ZM59.7505 359.3C59.4546 359.304 59.1998 359.092 59.1505 358.8C58.4005 355.5 57.7005 352.2 57.1005 348.8C57.0559 348.633 57.0851 348.455 57.1809 348.312C57.2766 348.168 57.4295 348.073 57.6005 348.05C57.76 348.021 57.9243 348.058 58.0561 348.152C58.188 348.246 58.2761 348.39 58.3005 348.55C58.5695 349.874 58.847 351.215 59.1296 352.581L59.1308 352.587L59.1312 352.589L59.1312 352.589C59.531 354.521 59.9408 356.501 60.3505 358.55C60.3957 358.709 60.373 358.88 60.2878 359.022C60.2025 359.164 60.0624 359.265 59.9005 359.3H59.7505ZM469.851 371.4C469.921 371.699 470.193 371.908 470.501 371.9L470.601 371.85C470.761 371.826 470.904 371.737 470.998 371.606C471.093 371.474 471.129 371.309 471.101 371.15C470.601 367.75 470.001 364.45 469.251 361.15C469.175 360.809 468.844 360.588 468.501 360.65C468.18 360.747 467.985 361.071 468.051 361.4C468.751 364.9 469.351 368.2 469.851 371.4ZM64.4505 379.25C64.1699 379.259 63.9206 379.072 63.8505 378.8V378.3C63.0005 375.05 62.1505 371.8 61.3505 368.3C61.3126 367.962 61.5237 367.645 61.8505 367.55C62.175 367.506 62.4865 367.693 62.6005 368L62.6007 368.001L62.6011 368.002C63.4009 371.252 64.2007 374.501 65.0505 377.7V378.2C65.1466 378.545 64.9454 378.903 64.6005 379L64.4505 379.25ZM471.601 391.3C471.601 391.631 471.869 391.9 472.201 391.9L472.251 391.85C472.59 391.824 472.852 391.54 472.851 391.2C472.827 389.649 472.715 388.075 472.603 386.5L472.603 386.499C472.477 384.724 472.351 382.948 472.351 381.2C472.338 381.027 472.257 380.867 472.125 380.754C471.994 380.642 471.823 380.586 471.651 380.6C471.481 380.612 471.325 380.694 471.22 380.828C471.115 380.961 471.072 381.133 471.101 381.3C471.351 384.65 471.601 388 471.601 391.3ZM69.7505 398.5C69.4881 398.5 69.2515 398.342 69.1505 398.1C68.2005 394.9 67.2505 391.65 66.3505 388.45C66.3053 388.291 66.3281 388.12 66.4133 387.978C66.4985 387.836 66.6387 387.735 66.8005 387.7C66.953 387.653 67.1178 387.669 67.2586 387.744C67.3993 387.819 67.5044 387.947 67.5505 388.1C68.4505 391.35 69.4005 394.55 70.3505 397.7C70.451 398.031 70.2753 398.382 69.9505 398.5H69.7505ZM470.521 411.755C470.628 411.881 470.786 411.953 470.951 411.95L471.151 411.9C471.416 411.839 471.615 411.62 471.651 411.35C471.726 410.652 471.808 409.95 471.89 409.243C472.192 406.659 472.501 404.02 472.501 401.35C472.48 401.018 472.229 400.747 471.901 400.7C471.733 400.686 471.567 400.743 471.444 400.857C471.32 400.971 471.25 401.132 471.251 401.3C471.051 404.7 470.751 408.05 470.401 411.3C470.37 411.462 470.415 411.629 470.521 411.755ZM75.9505 417.6C75.6803 417.579 75.4465 417.403 75.3505 417.15C74.3005 414 73.2505 410.85 72.2505 407.65C72.2238 407.35 72.4067 407.071 72.6924 406.976C72.9782 406.88 73.2919 406.994 73.4505 407.25C74.4505 410.45 75.5005 413.6 76.5505 416.75C76.6134 416.909 76.6058 417.087 76.5294 417.239C76.4531 417.392 76.3153 417.505 76.1505 417.55L75.9505 417.6ZM467.101 430.7C467.039 431.044 467.259 431.375 467.601 431.45L467.901 431.9C468.108 431.848 468.279 431.703 468.367 431.509C468.455 431.314 468.449 431.09 468.351 430.9C469.051 427.45 469.701 424.15 470.201 420.9C470.229 420.741 470.193 420.576 470.098 420.444C470.004 420.312 469.861 420.224 469.701 420.2C469.357 420.138 469.026 420.359 468.951 420.7C468.451 424.1 467.801 427.4 467.101 430.7ZM82.3505 436.45C82.0881 436.45 81.8515 436.292 81.7505 436.05C80.6005 432.95 79.4505 429.8 78.3505 426.65C78.2263 426.332 78.383 425.974 78.7005 425.85C79.0181 425.726 79.3763 425.882 79.5005 426.2C79.8838 427.25 80.2615 428.3 80.6392 429.349C81.3949 431.45 82.1505 433.55 82.9505 435.65C83.051 435.981 82.8753 436.332 82.5505 436.45H82.3505ZM461.951 450.1C461.85 450.431 462.026 450.782 462.351 450.9H462.551C462.813 450.9 463.05 450.742 463.151 450.5C464.201 447.35 465.201 444.1 466.101 440.9C466.183 440.569 465.982 440.233 465.651 440.15C465.319 440.067 464.983 440.269 464.901 440.6C464.001 443.75 463.051 446.95 461.951 450.1ZM89.7505 455.1C89.5104 455.116 89.2875 454.974 89.2005 454.75C87.9005 451.65 86.6505 448.55 85.4505 445.45C85.3683 445.293 85.3598 445.107 85.4273 444.943C85.4949 444.779 85.6315 444.654 85.8005 444.6C86.1311 444.499 86.4826 444.675 86.6005 445C87.8005 448.1 89.0505 451.2 90.3505 454.25C90.4623 454.581 90.3129 454.944 90.0005 455.1H89.7505ZM454.451 468.55C454.306 468.868 454.438 469.243 454.751 469.4C455.068 469.545 455.444 469.412 455.601 469.1C457.051 466.15 458.401 463.05 459.701 459.95C459.807 459.633 459.656 459.287 459.351 459.15C459.205 459.082 459.038 459.076 458.888 459.133C458.737 459.189 458.616 459.303 458.551 459.45C457.251 462.55 455.901 465.6 454.451 468.55ZM97.8505 473.5C97.6143 473.502 97.399 473.365 97.3005 473.15C95.9005 470.1 94.5505 467.05 93.2005 463.95C93.1331 463.804 93.1268 463.638 93.1832 463.487C93.2396 463.337 93.3539 463.215 93.5005 463.15C93.6577 463.068 93.8431 463.059 94.0071 463.127C94.1711 463.194 94.2968 463.331 94.3505 463.5C95.3709 465.894 96.4529 468.288 97.5239 470.658C97.8174 471.307 98.1101 471.955 98.4005 472.6C98.5451 472.918 98.4126 473.293 98.1005 473.45L97.8505 473.5ZM444.701 486.85H445.001L445.101 486.9C445.362 486.958 445.634 486.861 445.801 486.65C446.564 485.314 447.362 483.954 448.167 482.583L448.169 482.579C449.05 481.079 449.939 479.564 450.801 478.05C450.991 477.853 451.038 477.557 450.916 477.311C450.795 477.064 450.532 476.921 450.259 476.952C449.987 476.983 449.763 477.183 449.701 477.45C448.201 480.35 446.501 483.2 444.701 486C444.588 486.113 444.524 486.265 444.524 486.425C444.524 486.584 444.588 486.737 444.701 486.85ZM106.551 491.55C106.314 491.552 106.099 491.415 106.001 491.2C104.451 488.2 102.951 485.15 101.551 482.2C101.483 482.054 101.477 481.888 101.533 481.737C101.59 481.587 101.704 481.465 101.851 481.4C102.078 481.196 102.423 481.196 102.651 481.4L107.101 490.4C107.253 490.705 107.144 491.076 106.851 491.25L106.551 491.55ZM432.851 503H433.251H433.351C433.449 503.028 433.552 503.028 433.651 503C435.801 500.4 437.851 497.7 439.801 495.05C439.913 494.937 439.977 494.784 439.977 494.625C439.977 494.465 439.913 494.313 439.801 494.2C439.688 494.087 439.535 494.023 439.376 494.023C439.216 494.023 439.063 494.087 438.951 494.2C437.356 496.571 435.694 498.608 433.994 500.694L433.993 500.694C433.614 501.159 433.233 501.626 432.851 502.1C432.609 502.351 432.609 502.748 432.851 503ZM116.051 509.2C115.828 509.201 115.62 509.088 115.501 508.9L115.124 508.229C113.642 505.588 112.114 502.865 110.501 500.1C110.434 499.815 110.566 499.521 110.822 499.381C111.079 499.241 111.397 499.29 111.601 499.5C113.201 502.5 114.851 505.45 116.601 508.25C116.811 508.494 116.811 508.856 116.601 509.1L116.051 509.2ZM419.351 517.8C419.477 517.862 419.625 517.862 419.751 517.8C419.868 517.879 420.01 517.915 420.151 517.9C422.352 515.836 424.512 513.477 426.553 511.248L426.555 511.246L426.555 511.245L426.556 511.245C426.738 511.045 426.92 510.847 427.101 510.65C427.342 510.398 427.342 510.001 427.101 509.75C426.988 509.637 426.835 509.573 426.676 509.573C426.516 509.573 426.363 509.637 426.251 509.75C425.048 510.952 423.801 512.274 422.534 513.617L422.532 513.619C421.481 514.733 420.416 515.862 419.351 516.95C419.223 517.054 419.15 517.21 419.15 517.375C419.15 517.54 419.223 517.695 419.351 517.8ZM126.351 526.3C126.13 526.292 125.926 526.181 125.801 526C124.051 523.25 122.251 520.35 120.501 517.5C120.29 517.256 120.29 516.894 120.501 516.65C120.613 516.537 120.766 516.473 120.926 516.473C121.085 516.473 121.238 516.537 121.351 516.65C122.782 519.05 124.285 521.451 125.769 523.821L125.77 523.822C126.048 524.266 126.325 524.709 126.601 525.15C126.811 525.394 126.811 525.756 126.601 526L126.351 526.3ZM404.401 531.05C404.525 531.199 404.706 531.29 404.901 531.3L405.051 531.25C405.108 531.208 405.159 531.158 405.201 531.1L412.801 524.55C413.042 524.298 413.042 523.901 412.801 523.65C412.688 523.537 412.535 523.473 412.376 523.473C412.216 523.473 412.063 523.537 411.951 523.65C410.96 524.505 409.984 525.359 409.012 526.211L409.008 526.215L409.007 526.215L409.006 526.216L409.006 526.217L409.005 526.218L409.004 526.218L409.003 526.219L409.002 526.22L409.001 526.22L409.001 526.221L409 526.222L408.999 526.223L408.998 526.223L408.997 526.224C407.472 527.56 405.955 528.889 404.401 530.2C404.288 530.313 404.224 530.465 404.224 530.625C404.224 530.784 404.288 530.937 404.401 531.05ZM137.651 542.95C137.443 542.943 137.254 542.83 137.151 542.65C135.201 540.05 133.251 537.3 131.351 534.5C131.132 534.24 131.132 533.86 131.351 533.6C131.602 533.359 131.999 533.359 132.251 533.6C134.151 536.35 136.101 539.1 138.001 541.75C138.113 541.863 138.177 542.015 138.177 542.175C138.177 542.334 138.113 542.487 138.001 542.6C137.963 542.717 137.894 542.821 137.801 542.9L137.651 542.95ZM388.501 543.45C388.659 543.523 388.842 543.523 389.001 543.45L389.151 543.4C389.181 543.416 389.213 543.429 389.246 543.438C389.264 543.443 389.282 543.447 389.301 543.45C392.101 541.5 394.801 539.5 397.401 537.5C397.514 537.387 397.577 537.234 397.577 537.075C397.577 536.915 397.514 536.763 397.401 536.65C397.288 536.537 397.135 536.473 396.976 536.473C396.816 536.473 396.663 536.537 396.551 536.65C394.215 538.447 391.798 540.203 389.336 541.992L389.33 541.997L389.326 542L388.501 542.6C388.388 542.713 388.324 542.865 388.324 543.025C388.324 543.184 388.388 543.337 388.501 543.45ZM372.251 554.5C372.04 554.504 371.846 554.387 371.751 554.2C371.638 554.087 371.574 553.934 371.574 553.775C371.574 553.615 371.638 553.463 371.751 553.35C374.651 551.55 377.501 549.75 380.201 547.95C380.313 547.837 380.466 547.773 380.626 547.773C380.785 547.773 380.938 547.837 381.051 547.95C381.164 548.063 381.227 548.215 381.227 548.375C381.227 548.534 381.164 548.687 381.051 548.8C378.351 550.6 375.501 552.4 372.601 554.2L372.251 554.5ZM149.601 558.65C149.762 558.712 149.94 558.712 150.101 558.65L150.551 558.75C150.792 558.498 150.792 558.101 150.551 557.85C149.432 556.412 148.3 555.074 147.168 553.736L147.168 553.735L147.167 553.735L147.166 553.734L147.166 553.733L147.165 553.732L147.165 553.732L147.164 553.731L147.163 553.73L147.163 553.729L147.162 553.729L147.162 553.728L147.161 553.727L147.16 553.727L147.16 553.726L147.159 553.725L147.159 553.724L147.158 553.724L147.157 553.723L147.157 553.722L147.156 553.721L147.156 553.721L147.155 553.72L147.154 553.719L147.154 553.718L147.153 553.718L147.153 553.717L147.152 553.716L147.151 553.716L147.151 553.715L147.15 553.714L147.15 553.713L147.149 553.713L147.148 553.712L147.148 553.711L147.147 553.71L147.147 553.71L147.146 553.709L147.145 553.708L147.144 553.706C146.159 552.542 145.174 551.379 144.201 550.15C143.993 549.888 143.613 549.843 143.351 550.05C143.088 550.257 143.043 550.638 143.251 550.9C145.351 553.65 147.451 556.2 149.601 558.65ZM355.101 564.55C354.871 564.531 354.665 564.4 354.551 564.2C354.398 563.895 354.507 563.524 354.801 563.35C357.751 561.75 360.701 560.1 363.501 558.35C363.745 558.139 364.106 558.139 364.351 558.35C364.464 558.463 364.527 558.615 364.527 558.775C364.527 558.934 364.464 559.087 364.351 559.2L355.601 564.2L355.101 564.55ZM163.501 573.25C163.629 573.3 163.772 573.3 163.901 573.25V573.2C164.042 573.271 164.209 573.271 164.351 573.2C164.478 573.095 164.551 572.94 164.551 572.775C164.551 572.61 164.478 572.454 164.351 572.35C162.054 570.204 159.708 567.707 157.362 565.211L157.362 565.211L157.361 565.211L157.361 565.211L157.361 565.21L157.361 565.21L157.361 565.21L157.36 565.21L157.36 565.21L157.36 565.209L157.36 565.209L157.36 565.209L157.359 565.209L157.359 565.209L157.359 565.209L157.359 565.208L157.359 565.208L157.359 565.208L157.358 565.208L157.358 565.208L157.358 565.207L157.358 565.207L157.358 565.207L157.357 565.207L157.357 565.207L157.357 565.207L157.357 565.206L157.357 565.206L157.357 565.206L157.356 565.206L157.356 565.206L157.356 565.205L157.356 565.205L157.356 565.205L157.355 565.205L157.355 565.205L157.355 565.205L157.355 565.204L157.355 565.204L157.355 565.204L157.354 565.204L157.354 565.204L157.354 565.203L157.354 565.203L157.354 565.203L157.353 565.203L157.353 565.203L157.353 565.203L157.353 565.202L157.353 565.202L157.353 565.202L157.352 565.202L157.352 565.202L157.352 565.201L157.352 565.201L157.352 565.201L157.351 565.201L157.351 565.201L157.351 565.201L157.351 565.2L157.351 565.2L157.351 565.2C157.099 564.959 156.702 564.959 156.451 565.2C156.323 565.304 156.25 565.46 156.25 565.625C156.25 565.79 156.323 565.945 156.451 566.05C158.817 568.55 161.167 570.95 163.501 573.25ZM337.301 573.75C337.064 573.752 336.849 573.615 336.751 573.4C336.666 573.249 336.651 573.07 336.708 572.907C336.766 572.744 336.89 572.614 337.051 572.55L345.951 568.05C346.148 567.859 346.444 567.813 346.69 567.934C346.936 568.055 347.08 568.318 347.048 568.591C347.017 568.864 346.818 569.087 346.551 569.15C343.551 570.7 340.601 572.2 337.551 573.65L337.301 573.75ZM318.601 581.85C318.683 582.084 318.902 582.243 319.151 582.25L319.401 582.2L328.501 578C328.772 577.961 328.989 577.756 329.044 577.487C329.1 577.219 328.98 576.945 328.746 576.802C328.513 576.659 328.214 576.678 328.001 576.85C325.871 577.879 323.716 578.858 321.554 579.84L321.55 579.842L321.546 579.844C320.665 580.244 319.783 580.645 318.901 581.05C318.754 581.115 318.64 581.237 318.583 581.387C318.527 581.538 318.533 581.704 318.601 581.85ZM179.151 586.35C179.037 586.388 178.914 586.388 178.801 586.35C177.257 585.162 175.784 583.94 174.255 582.671C173.21 581.803 172.138 580.914 171.001 580C170.738 579.779 170.705 579.387 170.926 579.125C171.146 578.863 171.538 578.829 171.801 579.05C171.983 579.207 172.164 579.364 172.345 579.52L172.36 579.533C174.712 581.564 177.002 583.543 179.551 585.35C179.68 585.464 179.754 585.628 179.754 585.8C179.754 585.972 179.68 586.136 179.551 586.25C179.399 586.339 179.216 586.357 179.051 586.3L179.151 586.35ZM300.301 589.8C300.388 590.024 300.61 590.166 300.851 590.15L301.101 590.1C304.201 588.85 307.251 587.55 310.351 586.2C310.497 586.135 310.611 586.013 310.668 585.863C310.724 585.712 310.718 585.546 310.651 585.4C310.498 585.111 310.166 584.966 309.851 585.05C306.801 586.4 303.701 587.7 300.601 588.95C300.288 589.107 300.156 589.482 300.301 589.8ZM195.851 597.2H195.551C192.916 595.792 190.282 594.219 187.685 592.668L187.684 592.667C187.422 592.511 187.161 592.355 186.901 592.2C186.69 591.956 186.69 591.594 186.901 591.35C187.013 591.237 187.166 591.173 187.326 591.173C187.485 591.173 187.638 591.237 187.751 591.35C190.551 593.2 193.451 594.9 196.301 596.35C196.511 596.594 196.511 596.956 196.301 597.2C196.149 597.238 195.99 597.22 195.851 597.15V597.2ZM281.651 597.25C281.733 597.484 281.952 597.643 282.201 597.65L282.451 597.6L291.751 593.9C292.056 593.763 292.207 593.417 292.101 593.1C291.964 592.795 291.618 592.643 291.301 592.75L282.001 596.45C281.834 596.491 281.697 596.607 281.628 596.764C281.559 596.92 281.568 597.1 281.651 597.25ZM263.501 604.7C263.22 604.709 262.971 604.522 262.901 604.25C262.8 603.919 262.976 603.568 263.301 603.45C264.737 603.004 266.223 602.459 267.709 601.913L267.71 601.913L267.71 601.912L267.711 601.912L267.711 601.912L267.712 601.912L267.713 601.912L267.713 601.912L267.714 601.911L267.714 601.911L267.715 601.911L267.715 601.911L267.716 601.911L267.717 601.91L267.717 601.91L267.718 601.91L267.718 601.91L267.719 601.91L267.72 601.91L267.72 601.909L267.721 601.909L267.721 601.909L267.722 601.909L267.723 601.909L267.723 601.908L267.724 601.908L267.724 601.908L267.725 601.908L267.726 601.908L267.726 601.908L267.727 601.907L267.727 601.907L267.728 601.907L267.729 601.907L267.729 601.907L267.73 601.906L267.73 601.906L267.731 601.906L267.732 601.906L267.732 601.906L267.733 601.906L267.733 601.905L267.734 601.905L267.735 601.905L267.735 601.905L267.736 601.905L267.736 601.904L267.737 601.904L267.738 601.904L267.738 601.904L267.739 601.904L267.739 601.904L267.74 601.903L267.74 601.903L267.741 601.903L267.742 601.903L267.742 601.903L267.743 601.902L267.743 601.902L267.744 601.902L267.745 601.902L267.745 601.902L267.746 601.901L267.746 601.901L267.747 601.901L267.748 601.901L267.748 601.901L267.749 601.901L267.751 601.9L272.751 600.05C272.903 599.985 273.075 599.986 273.226 600.052C273.377 600.119 273.495 600.244 273.551 600.4C273.633 600.55 273.642 600.73 273.573 600.886C273.504 601.043 273.367 601.159 273.201 601.2L268.201 603.1C266.701 603.65 265.151 604.2 263.651 604.65L263.501 604.7ZM204.801 601.55C207.887 602.868 211.041 604.019 214.251 605V604.95C214.566 605.034 214.898 604.889 215.051 604.6C215.147 604.255 214.945 603.897 214.601 603.8C211.441 602.836 208.337 601.701 205.301 600.4C204.97 600.288 204.607 600.438 204.451 600.75C204.344 601.067 204.495 601.413 204.801 601.55ZM243.851 608.5C243.519 608.5 243.251 608.231 243.251 607.9C243.22 607.738 243.265 607.571 243.371 607.445C243.478 607.319 243.636 607.247 243.801 607.25C247.157 607.023 250.497 606.589 253.801 605.95C254.144 605.888 254.475 606.109 254.551 606.45C254.579 606.609 254.543 606.774 254.448 606.906C254.354 607.037 254.211 607.126 254.051 607.15C250.747 607.799 247.408 608.25 244.051 608.5H243.851ZM233.851 608.5C230.496 608.299 227.157 607.899 223.851 607.3C223.679 607.277 223.527 607.182 223.431 607.038C223.335 606.894 223.306 606.717 223.351 606.55C223.375 606.39 223.463 606.246 223.595 606.152C223.727 606.058 223.891 606.021 224.051 606.05C227.357 606.65 230.696 607.05 234.051 607.25C234.219 607.249 234.379 607.319 234.493 607.443C234.608 607.567 234.665 607.732 234.651 607.9C234.641 608.093 234.546 608.272 234.391 608.388C234.237 608.504 234.039 608.545 233.851 608.5ZM380.151 219.2C380.236 219.243 380.33 219.26 380.422 219.251C380.613 219.368 380.856 219.37 381.051 219.25C381.292 218.998 381.292 218.601 381.051 218.35C379.271 216.491 377.272 214.633 375.327 212.823L375.327 212.823C374.813 212.345 374.302 211.87 373.801 211.4C373.549 211.159 373.152 211.159 372.901 211.4C372.788 211.513 372.724 211.665 372.724 211.825C372.724 211.984 372.788 212.137 372.901 212.25C374.386 213.736 376.002 215.265 377.634 216.809L377.636 216.81L377.637 216.811L377.643 216.817L377.648 216.822L377.659 216.832C378.491 217.619 379.326 218.409 380.151 219.2ZM334.401 180.05H334.751C334.898 180.051 335.04 179.997 335.151 179.9C335.264 179.787 335.327 179.634 335.327 179.475C335.327 179.315 335.264 179.163 335.151 179.05L335.148 179.048L335.147 179.048C332.448 177.048 329.749 175.049 327.001 173.1C326.719 172.999 326.405 173.102 326.24 173.351C326.074 173.6 326.099 173.929 326.301 174.15C329.001 176.05 331.751 178.05 334.401 180.05ZM284.101 147.55H283.801C280.867 145.95 277.917 144.4 274.951 142.9C274.773 142.81 274.647 142.643 274.608 142.448C274.569 142.253 274.622 142.051 274.751 141.9C274.824 141.748 274.959 141.635 275.12 141.588C275.282 141.54 275.456 141.563 275.601 141.65C278.501 143.1 281.501 144.7 284.451 146.3C284.564 146.413 284.627 146.565 284.627 146.725C284.627 146.884 284.564 147.037 284.451 147.15C284.42 147.324 284.309 147.472 284.151 147.55H284.101ZM199.751 116.9C203.151 117.4 206.451 118.05 209.751 118.75C210.067 118.812 210.376 118.614 210.451 118.3C210.512 117.956 210.292 117.625 209.951 117.55C206.501 116.8 203.151 116.2 199.951 115.65C199.791 115.621 199.627 115.658 199.495 115.752C199.363 115.846 199.275 115.99 199.251 116.15C199.189 116.494 199.409 116.825 199.751 116.9ZM159.329 115.408C159.443 115.512 159.596 115.564 159.751 115.55H159.701C163.001 115.2 166.351 114.9 169.701 114.9C169.869 114.901 170.029 114.83 170.143 114.707C170.258 114.583 170.315 114.418 170.301 114.25C170.277 113.929 170.021 113.674 169.701 113.65C166.301 113.75 162.951 114 159.701 114.35C159.536 114.347 159.378 114.419 159.271 114.545C159.165 114.671 159.121 114.838 159.151 115C159.15 115.155 159.215 115.303 159.329 115.408Z" fill="#D8D5DB"/>
<path d="M469.75 395.75C469.75 396.35 469.75 396.85 469.75 397.4C468.5 411.35 456.5 441.1 444.75 467.4C445.15 476.9 445.45 485.4 445.5 492.4C445.5 493.7 445.5 494.9 445.5 496.1H444.05C444.4 502.3 444.85 513.05 445.2 525.4C401.95 551.55 348.35 567.4 292.55 580.4L283 582.55C274.706 584.434 266.198 585.207 257.7 584.85C257.189 582.757 257.003 580.599 257.15 578.45C258.332 550.261 261.271 522.173 265.95 494.35L262.85 493.9C274.2 455.6 279.9 400.35 282.85 352.4C283.2 346.75 283.5 341.25 283.75 335.8C276.5 343.2 271.5 347.8 271.5 347.8L256.15 322.55C237.2 336.25 219.3 348.35 210.55 353.95C203.3 360.75 190.95 361.75 181.25 348.95C165.55 328.4 143.4 242.15 140.8 227.5C140.421 227.356 140.066 227.154 139.75 226.9C136.15 221.9 123.55 194.65 124.75 189.35C125.95 184.05 131.85 172.6 138.7 171.05C137.9 168.6 137 166.05 135.7 162.5C132.8 154.6 129.35 146.6 134.55 147.5C139.75 148.4 151.65 177.5 153.7 182.5C154 180.15 154.3 178.25 154.3 178.25C155.9 173.55 164.3 171.05 163.05 178.25C161.6 188.25 165.1 193.25 164.95 201.5C164.95 201.95 164.95 202.45 164.95 203.15C164.97 203.449 164.97 203.75 164.95 204.05C164.977 204.266 164.977 204.484 164.95 204.7C164.95 204.7 164.95 204.95 164.95 205.05C163.733 211.194 161.574 217.114 158.55 222.6C164 240.4 189 286.95 203.55 312.6C212.45 305.2 223.55 296.4 235.05 287.6L234.05 285.95C234.05 285.95 293.35 230.5 324.05 226.3C324.5 224.15 324.8 221.8 325.1 219.35C325.4 216.9 325.6 212.75 325.7 209.35C303.15 209.1 301.05 192.5 303.3 171.4L299.75 170.5L305 156.9V155.9C304.424 155.229 304.089 154.384 304.05 153.5C304.05 151.85 304.5 150.45 305.4 150.4C305.529 150.35 305.672 150.35 305.8 150.4C305.8 149.2 306.2 148 306.35 146.8C306.75 144.15 307.25 141.8 307.75 139.35C306.413 139.087 305.037 139.087 303.7 139.35L303.3 136.9C304.954 136.605 306.647 136.605 308.3 136.9C309.96 130.196 312.641 123.788 316.25 117.9C309.05 117.4 305.65 115.05 310.65 109.25C318.4 100.25 355.1 95.7497 373.6 99.5497C380.1 100.9 384.35 103.25 384.4 106.75C384.4 107.15 384.4 107.4 384.4 107.75C386.292 106.949 387.921 105.632 389.1 103.95L391.2 105.35C389.993 107.057 388.422 108.475 386.6 109.5L385.85 109.9C405.65 122.8 377.65 191.9 377.55 191.9C377 203.75 376.65 215.45 376.7 223.7C394.5 225.75 405.75 230.95 413.2 239.1C433.2 255.15 463.9 321 463.9 321L451.35 324.3C460.3 353 467.9 381.8 470.1 391.45C470.166 392.892 470.048 394.337 469.75 395.75Z" fill="#D1CDD3"/>
<rect opacity="0.3" x="377.051" y="284.9" width="334.65" height="261.25" rx="33.6" transform="rotate(180 377.051 284.9)" fill="#4D8DFF"/>
<path opacity="0.3" fill-rule="evenodd" clip-rule="evenodd" d="M40.1504 308.55H354.75C365.385 308.55 375.582 304.315 383.088 296.781C390.594 289.247 394.79 279.035 394.75 268.4V40.1499C394.75 18.0585 376.842 0.149902 354.75 0.149902H40.1504C18.059 0.149902 0.150391 18.0585 0.150391 40.1499V268.55C0.150391 290.641 18.059 308.55 40.1504 308.55ZM1.25039 40.1499C1.27794 18.6774 18.6779 1.27745 40.1504 1.2499H354.75C376.223 1.27745 393.623 18.6774 393.65 40.1499V268.4C393.623 289.872 376.223 307.272 354.75 307.3H40.1504C18.6779 307.272 1.27794 289.872 1.25039 268.4V40.1499Z" fill="#4D8DFF"/>
<g opacity="0.3">
<rect x="126.051" y="101.05" width="55.9" height="43.65" rx="5.6" transform="rotate(180 126.051 101.05)" fill="#4D8DFF"/>
<rect x="200.45" y="101.05" width="55.9" height="43.65" rx="5.6" transform="rotate(180 200.45 101.05)" fill="#4D8DFF"/>
<rect x="274.9" y="101.05" width="55.9" height="43.65" rx="5.6" transform="rotate(180 274.9 101.05)" fill="#4D8DFF"/>
<rect x="349.351" y="101.05" width="55.9" height="43.65" rx="5.6" transform="rotate(180 349.351 101.05)" fill="#4D8DFF"/>
</g>
<g opacity="0.3">
<rect x="126.051" y="176.1" width="55.9" height="43.65" rx="5.6" transform="rotate(180 126.051 176.1)" fill="#4D8DFF"/>
<rect x="200.45" y="176.1" width="55.9" height="43.65" rx="5.6" transform="rotate(180 200.45 176.1)" fill="#4D8DFF"/>
<rect x="274.9" y="176.1" width="55.9" height="43.65" rx="5.6" transform="rotate(180 274.9 176.1)" fill="#4D8DFF"/>
<rect x="349.351" y="176.1" width="55.9" height="43.65" rx="5.6" transform="rotate(180 349.351 176.1)" fill="#4D8DFF"/>
</g>
<g opacity="0.3">
<rect x="126.051" y="251.1" width="55.9" height="43.65" rx="5.6" transform="rotate(180 126.051 251.1)" fill="#4D8DFF"/>
<rect x="200.45" y="251.1" width="55.9" height="43.65" rx="5.6" transform="rotate(180 200.45 251.1)" fill="#4D8DFF"/>
<rect x="274.9" y="251.1" width="55.9" height="43.65" rx="5.6" transform="rotate(180 274.9 251.1)" fill="#4D8DFF"/>
<rect x="349.351" y="251.1" width="55.9" height="43.65" rx="5.6" transform="rotate(180 349.351 251.1)" fill="#4D8DFF"/>
</g>
<rect x="282" y="93.9497" width="55.9" height="43.65" rx="5.6" transform="rotate(180 282 93.9497)" fill="#4D8DFF"/>
<rect x="282" y="244" width="55.9" height="43.65" rx="5.6" transform="rotate(180 282 244)" fill="#FF4E4A"/>
<rect x="133.101" y="169" width="55.9" height="43.65" rx="5.6" transform="rotate(180 133.101 169)" fill="#FFC84D"/>
<path d="M416.1 148.75C414.4 159.65 411.1 218.75 412.45 232.25C413.8 245.75 347.45 249.85 356.3 234.8C365.15 219.75 358.85 169.8 358.85 169.8L416.1 148.75Z" fill="#FFAD69"/>
<path d="M411.501 150.45L358.851 169.7C360.822 186.173 361.291 202.792 360.251 219.35C381.951 210.4 377.151 192.2 377.151 182.4C377.151 173.5 411.551 152.15 411.501 150.45Z" fill="#D88344"/>
<path d="M342.1 152.7L333.9 170.2L343.9 174.25L342.1 152.7Z" fill="#D88344"/>
<path d="M341.95 146.9C336.95 180.55 328.75 214.1 369.55 208.55C410.35 203 416.65 150.8 416.55 140.9C415.9 88.3 351.55 80.8 341.95 146.9Z" fill="#FFAD69"/>
<path d="M421.501 110.1C423.608 109.011 425.438 107.455 426.851 105.55L424.751 104.15C423.475 105.861 421.742 107.179 419.751 107.95C419.778 107.6 419.778 107.249 419.751 106.9C419.751 93.2997 356.451 97.1997 346.001 109.35C339.801 116.55 346.401 118.45 357.101 118.1C356.306 118.711 355.714 119.547 355.401 120.5C348.351 155.05 381.651 189.05 385.401 191.95H412.601C412.601 191.95 441.101 122.8 421.501 110.1Z" fill="#232323"/>
<path d="M505.5 391.5C501.9 375.45 483.15 306 468.25 272.7L430.2 280.8C430.2 280.8 454.75 362.9 467.8 393.55C464.75 410.05 449.35 486.8 439.85 508.25C435.65 518.25 451.55 522.1 455.4 517.3C459.25 512.5 502.95 424.7 505.4 397.3C505.4 396.7 505.4 396.2 505.4 395.65C505.65 394.28 505.683 392.88 505.5 391.5Z" fill="#FFAD69"/>
<path d="M448.351 238.85C468.351 254.5 499.301 321.05 499.301 321.05L433.801 338.05C433.801 338.05 395.701 197.65 448.351 238.85Z" fill="#E5AA33"/>
<path d="M479.75 500.35C469.073 509.764 457.521 518.136 445.25 525.35C402 551.5 348.4 567.35 292.6 580.35C292.55 579.701 292.55 579.049 292.6 578.4C294.4 547.45 297.6 512.1 302.6 489.65L445.65 492.5L479.45 493.2C479.45 494.9 479.75 497.3 479.75 500.35Z" fill="#232323"/>
<path d="M400.451 222.9C439.701 224.2 453.001 237.45 459.751 260.4C467.451 286.4 481.001 443.65 481.001 496.15C481.001 496.15 363.451 504.5 298.351 493.8C318.751 424.85 320.951 300.9 321.401 263.8C321.701 236.25 350.651 221.25 400.451 222.9Z" fill="#FFC84D"/>
<path fill-rule="evenodd" clip-rule="evenodd" d="M405.3 249.9C406.003 250.85 407.118 251.408 408.3 251.4L408.9 251.2C410.242 251.03 411.388 250.151 411.9 248.9L417.6 234.7C417.98 233.558 417.798 232.305 417.108 231.319C416.418 230.334 415.302 229.733 414.1 229.7H397.75C396.33 229.7 395.031 230.502 394.396 231.773C393.761 233.043 393.898 234.563 394.75 235.7L405.3 249.9ZM396.5 232.9C396.714 232.462 397.163 232.189 397.65 232.2H413.95C414.37 232.195 414.765 232.402 415 232.75C415.225 233.118 415.225 233.581 415 233.95L409.3 248.1C409.149 248.537 408.76 248.848 408.3 248.9C407.855 248.951 407.416 248.761 407.15 248.4L396.5 234.2C396.245 233.804 396.245 233.296 396.5 232.9Z" fill="white"/>
<path d="M321.251 272.95C320.951 291.1 320.251 320.05 318.301 352.4C334.951 332.4 351.301 308.75 352.251 291C353.601 266.6 339.751 265.1 321.251 272.95Z" fill="#E5AA33"/>
<path d="M343.401 281.4L323.401 248.15C323.401 248.15 268.401 287.8 238.851 312.35C224.251 286.65 199.301 240.1 193.851 222.35C196.865 216.883 199.007 210.978 200.201 204.85C200.23 204.735 200.23 204.615 200.201 204.5C200.201 204.5 200.201 204.05 200.201 203.85C200.222 203.55 200.222 203.25 200.201 202.95C200.201 202.25 200.201 201.7 200.201 201.25C200.201 193.2 196.851 188.25 198.301 178.05C199.301 170.9 191.151 173.35 189.551 178.05L188.901 182.25C186.851 177.25 174.501 147.9 169.801 147.25C165.101 146.6 168.051 154.5 170.951 162.25C172.201 165.7 173.151 168.4 173.951 170.8C167.051 172.4 160.951 184.2 160.001 189.15C159.051 194.1 171.551 221.7 175.001 226.7C175.268 227.034 175.589 227.321 175.951 227.55C178.501 242.25 200.951 328.45 216.351 349.05C226.051 361.8 238.451 360.8 245.701 354.05C263.501 342.7 318.201 305.1 343.401 281.4Z" fill="#FFAD69"/>
<path d="M377.15 248.15C375.15 284.85 307.15 347.8 307.15 347.8L269.25 285.8C269.25 285.8 380.85 181.4 377.15 248.15Z" fill="#FFC84D"/>
<path d="M356.15 157.3C354.65 166.1 352.45 174.85 360.7 174.2C368.95 173.55 371.05 159.85 371.2 157.25C371.9 143.25 359.1 139.9 356.15 157.3Z" fill="#FFAD69"/>
</svg>
