<svg width="520" height="574" viewBox="0 0 520 574" fill="none" xmlns="http://www.w3.org/2000/svg">
<mask id="mask0_932_1220" style="mask-type:luminance" maskUnits="userSpaceOnUse" x="0" y="62" width="520" height="512">
<path fill-rule="evenodd" clip-rule="evenodd" d="M0.000976562 62.3013H519.785V573.31H0.000976562V62.3013Z" fill="white"/>
</mask>
<g mask="url(#mask0_932_1220)">
<path fill-rule="evenodd" clip-rule="evenodd" d="M456.451 550.18C443.001 558.28 427.351 564.13 410.101 567.93C398.651 570.43 386.451 572.08 373.751 572.78C327.051 575.63 273.351 566.88 221.601 549.38C210.001 545.48 198.501 541.13 187.201 536.33C103.051 500.93 29.9008 443.13 9.40081 376.13C-28.0492 253.83 52.3508 165.88 145.451 85.1799C183.201 52.4299 232.401 57.1299 283.301 84.7799C295.201 91.2299 307.151 98.9299 319.101 107.68C363.951 140.63 408.351 188.58 445.851 241.88C519.451 346.53 562.051 486.73 456.451 550.18Z" fill="#FDE6D6"/>
</g>
<path fill-rule="evenodd" clip-rule="evenodd" d="M417.217 155.934C408.532 138.424 405.352 116.264 422.767 109.129C442.217 101.164 473.207 114.044 482.227 143.269C487.992 161.944 486.012 188.014 470.082 198.034C456.452 206.614 427.872 177.409 417.217 155.934Z" fill="#E8E5EA"/>
<path fill-rule="evenodd" clip-rule="evenodd" d="M141.485 66.8423C141.47 66.8423 141.455 66.8423 141.44 66.8423C138.095 66.6123 134.74 66.4873 131.48 66.4673C131.13 66.4673 130.855 66.1873 130.855 65.8423C130.86 65.4973 131.135 65.2173 131.48 65.2173H131.485C134.775 65.2373 138.155 65.3623 141.53 65.5923C141.875 65.6173 142.13 65.9173 142.11 66.2623C142.085 66.5923 141.81 66.8423 141.485 66.8423ZM111.515 67.8023C111.21 67.8023 110.94 67.5773 110.895 67.2673C110.845 66.9273 111.08 66.6073 111.425 66.5573C114.655 66.0873 118.025 65.7373 121.43 65.5123C121.82 65.4473 122.075 65.7523 122.095 66.0973C122.12 66.4373 121.86 66.7373 121.515 66.7573C118.14 66.9823 114.805 67.3323 111.605 67.7923C111.575 67.7973 111.545 67.8023 111.515 67.8023ZM161.355 69.3173C161.315 69.3173 161.28 69.3123 161.245 69.3073C157.96 68.7173 154.64 68.2173 151.375 67.8073C151.03 67.7623 150.785 67.4523 150.83 67.1073C150.875 66.7673 151.16 66.5373 151.53 66.5673C154.82 66.9773 158.16 67.4873 161.465 68.0773C161.8 68.1373 162.03 68.4623 161.97 68.8023C161.915 69.1023 161.65 69.3173 161.355 69.3173ZM92.0253 72.3173C91.7603 72.3173 91.5153 72.1473 91.4303 71.8773C91.3253 71.5473 91.5103 71.1973 91.8403 71.0973C95.0053 70.0973 98.2653 69.2073 101.535 68.4423C101.865 68.3623 102.21 68.5723 102.285 68.9073C102.365 69.2423 102.155 69.5773 101.82 69.6573C98.5803 70.4173 95.3453 71.3023 92.2153 72.2873C92.1503 72.3073 92.0903 72.3173 92.0253 72.3173ZM180.895 73.6973C180.84 73.6973 180.785 73.6923 180.73 73.6773C177.48 72.7973 174.22 71.9923 171.035 71.2773C170.695 71.2023 170.485 70.8673 170.56 70.5273C170.635 70.1923 170.95 69.9773 171.305 70.0573C174.51 70.7773 177.79 71.5873 181.06 72.4673C181.39 72.5623 181.59 72.9023 181.495 73.2373C181.42 73.5123 181.17 73.6973 180.895 73.6973ZM200.03 79.6473C199.96 79.6473 199.89 79.6373 199.82 79.6123C196.69 78.5073 193.495 77.4523 190.335 76.4673C190.005 76.3623 189.82 76.0123 189.925 75.6873C190.025 75.3573 190.38 75.1673 190.705 75.2773C193.88 76.2623 197.09 77.3273 200.235 78.4323C200.56 78.5473 200.735 78.9073 200.62 79.2323C200.53 79.4873 200.29 79.6473 200.03 79.6473ZM73.5103 79.8423C73.2853 79.8423 73.0653 79.7173 72.9553 79.4973C72.8003 79.1923 72.9203 78.8173 73.2303 78.6573C76.1753 77.1573 79.2553 75.7523 82.3803 74.4873C82.6903 74.3473 83.0603 74.5123 83.1903 74.8323C83.3203 75.1523 83.1653 75.5173 82.8453 75.6473C79.7553 76.8973 76.7103 78.2873 73.7953 79.7723C73.7053 79.8173 73.6053 79.8423 73.5103 79.8423ZM218.71 86.8923C218.63 86.8923 218.55 86.8773 218.465 86.8423C215.405 85.5423 212.29 84.2723 209.2 83.0773C208.88 82.9523 208.72 82.5873 208.845 82.2673C208.975 81.9473 209.335 81.7973 209.655 81.9123C212.755 83.1123 215.885 84.3873 218.955 85.6923C219.275 85.8273 219.42 86.1923 219.29 86.5123C219.185 86.7473 218.955 86.8923 218.71 86.8923ZM56.6103 90.4973C56.4203 90.4973 56.2403 90.4173 56.1153 90.2573C55.9053 89.9823 55.9553 89.5873 56.2303 89.3773C58.8553 87.3573 61.6303 85.4173 64.4753 83.6223C64.7703 83.4423 65.1553 83.5273 65.3403 83.8173C65.5253 84.1123 65.4353 84.4973 65.1453 84.6773C62.3303 86.4573 59.5903 88.3723 56.9903 90.3723C56.8803 90.4573 56.7453 90.4973 56.6103 90.4973ZM236.92 95.2523C236.83 95.2523 236.735 95.2323 236.645 95.1873C233.635 93.7023 230.6 92.2573 227.615 90.8873C227.305 90.7423 227.165 90.3673 227.31 90.0573C227.455 89.7423 227.825 89.6023 228.14 89.7473C231.13 91.1223 234.18 92.5773 237.2 94.0623C237.51 94.2173 237.635 94.5923 237.485 94.9023C237.375 95.1223 237.15 95.2523 236.92 95.2523ZM42.0053 104.132C41.8553 104.132 41.7103 104.082 41.5903 103.972C41.3303 103.747 41.3103 103.352 41.5403 103.092C43.7553 100.597 46.1153 98.1723 48.5603 95.8923C48.8103 95.6523 49.2053 95.6673 49.4403 95.9173C49.6803 96.1723 49.6653 96.5673 49.4103 96.8023C47.0003 99.0623 44.6653 101.457 42.4703 103.922C42.3503 104.062 42.1803 104.132 42.0053 104.132ZM254.655 104.582C254.55 104.582 254.45 104.557 254.35 104.502C251.445 102.877 248.485 101.272 245.56 99.7323C245.255 99.5723 245.135 99.1923 245.295 98.8873C245.46 98.5823 245.84 98.4623 246.14 98.6223C249.08 100.172 252.045 101.782 254.96 103.412C255.26 103.582 255.37 103.962 255.2 104.262C255.085 104.467 254.875 104.582 254.655 104.582ZM271.905 114.792C271.795 114.792 271.68 114.762 271.575 114.697C268.725 112.917 265.85 111.172 263.03 109.502C262.73 109.327 262.63 108.942 262.81 108.647C262.98 108.342 263.365 108.247 263.665 108.427C266.49 110.097 269.38 111.852 272.24 113.637C272.53 113.822 272.62 114.207 272.435 114.502C272.32 114.687 272.115 114.792 271.905 114.792ZM30.1203 120.212C30.0053 120.212 29.8953 120.182 29.7903 120.117C29.5003 119.937 29.4053 119.552 29.5853 119.257C31.3453 116.392 33.2403 113.582 35.2053 110.912C35.4153 110.637 35.8053 110.582 36.0803 110.782C36.3603 110.987 36.4153 111.377 36.2103 111.652C34.2653 114.297 32.3953 117.072 30.6503 119.912C30.5353 120.107 30.3303 120.212 30.1203 120.212ZM288.655 125.802C288.53 125.802 288.405 125.762 288.3 125.692C285.53 123.777 282.735 121.897 280 120.097C279.71 119.907 279.63 119.522 279.82 119.232C280.01 118.952 280.395 118.867 280.685 119.052C283.43 120.857 286.23 122.742 289.005 124.657C289.295 124.857 289.365 125.247 289.17 125.527C289.045 125.702 288.85 125.802 288.655 125.802ZM304.86 137.527C304.73 137.527 304.6 137.487 304.485 137.402C301.805 135.377 299.105 133.372 296.455 131.452C296.175 131.247 296.115 130.857 296.315 130.582C296.52 130.297 296.91 130.237 297.19 130.442C299.845 132.362 302.555 134.372 305.24 136.407C305.515 136.612 305.565 137.007 305.36 137.282C305.235 137.442 305.05 137.527 304.86 137.527ZM21.0153 138.022C20.9353 138.022 20.8553 138.007 20.7753 137.977C20.4553 137.842 20.3053 137.472 20.4403 137.157C21.7503 134.037 23.1753 130.967 24.6703 128.037C24.8253 127.727 25.2003 127.602 25.5103 127.762C25.8203 127.917 25.9403 128.297 25.7853 128.602C24.3003 131.512 22.8903 134.552 21.5903 137.642C21.4903 137.882 21.2603 138.022 21.0153 138.022ZM320.565 149.987C320.425 149.987 320.285 149.942 320.165 149.847C317.645 147.752 315.03 145.627 312.39 143.532C312.12 143.317 312.075 142.927 312.29 142.657C312.51 142.387 312.9 142.347 313.165 142.552C315.815 144.652 318.44 146.782 320.965 148.882C321.23 149.102 321.27 149.497 321.05 149.762C320.925 149.912 320.745 149.987 320.565 149.987ZM14.4803 156.937C14.4203 156.937 14.3653 156.932 14.3103 156.917C13.9803 156.822 13.7803 156.477 13.8753 156.142C14.7853 152.887 15.7853 149.657 16.8553 146.547C16.9703 146.222 17.3303 146.037 17.6503 146.157C17.9753 146.272 18.1503 146.627 18.0403 146.952C16.9753 150.042 15.9803 153.247 15.0803 156.482C15.0053 156.757 14.7503 156.937 14.4803 156.937ZM335.735 163.167C335.58 163.167 335.435 163.112 335.315 163.002C332.85 160.762 330.325 158.517 327.81 156.332C327.55 156.112 327.525 155.712 327.75 155.452C327.975 155.187 328.37 155.172 328.63 155.392C331.155 157.582 333.68 159.832 336.155 162.077C336.41 162.312 336.43 162.707 336.195 162.962C336.07 163.097 335.905 163.167 335.735 163.167ZM10.1703 176.492C10.1353 176.492 10.1003 176.487 10.0653 176.482C9.72531 176.427 9.49531 176.102 9.55531 175.762C10.1103 172.437 10.7503 169.122 11.4553 165.902C11.5303 165.567 11.8603 165.357 12.2003 165.422C12.5353 165.497 12.7503 165.832 12.6753 166.167C11.9753 169.367 11.3403 172.667 10.7853 175.967C10.7353 176.272 10.4703 176.492 10.1703 176.492ZM350.25 176.987C350.09 176.987 349.93 176.927 349.81 176.802C347.445 174.447 345.03 172.097 342.64 169.822C342.39 169.582 342.38 169.187 342.62 168.937C342.855 168.692 343.255 168.677 343.5 168.917C345.9 171.202 348.32 173.557 350.69 175.917C350.935 176.162 350.935 176.557 350.69 176.802C350.57 176.927 350.41 176.987 350.25 176.987ZM364.09 191.477C363.92 191.477 363.755 191.407 363.63 191.272C361.385 188.807 359.09 186.342 356.805 183.952C356.57 183.707 356.58 183.307 356.825 183.072C357.08 182.837 357.47 182.837 357.71 183.092C360.005 185.487 362.305 187.957 364.555 190.432C364.79 190.687 364.77 191.082 364.51 191.312C364.395 191.422 364.245 191.477 364.09 191.477ZM7.75531 196.367C7.74031 196.367 7.72531 196.367 7.70531 196.367C7.36031 196.337 7.10531 196.037 7.13031 195.697C7.39531 192.327 7.73031 188.962 8.12531 185.702C8.16531 185.362 8.44531 185.132 8.82031 185.157C9.16531 185.197 9.40531 185.507 9.36531 185.852C8.97531 189.097 8.64031 192.442 8.37531 195.792C8.35531 196.117 8.08031 196.367 7.75531 196.367ZM377.19 206.642C377.01 206.642 376.83 206.562 376.705 206.412C374.625 203.872 372.46 201.297 370.265 198.757C370.04 198.497 370.07 198.102 370.335 197.877C370.595 197.647 370.99 197.682 371.215 197.942C373.415 200.487 375.59 203.072 377.675 205.622C377.895 205.887 377.855 206.282 377.585 206.502C377.47 206.597 377.33 206.642 377.19 206.642ZM6.94531 216.382C6.60031 216.377 6.32031 216.097 6.32031 215.752C6.33531 212.397 6.41031 209.022 6.54031 205.717C6.55531 205.377 6.82031 205.092 7.19031 205.117C7.53531 205.132 7.80531 205.422 7.79031 205.767C7.66031 209.057 7.58531 212.417 7.57031 215.757C7.57031 216.102 7.29031 216.382 6.94531 216.382ZM389.445 222.497C389.25 222.497 389.06 222.412 388.94 222.242C386.975 219.547 384.955 216.852 382.935 214.242C382.725 213.967 382.775 213.577 383.05 213.362C383.32 213.152 383.71 213.197 383.925 213.477C385.955 216.097 387.98 218.802 389.95 221.507C390.15 221.787 390.09 222.177 389.815 222.377C389.7 222.462 389.57 222.497 389.445 222.497ZM7.51031 236.412C7.18031 236.412 6.90531 236.152 6.88531 235.822C6.68531 232.432 6.53531 229.052 6.44531 225.792C6.43531 225.447 6.70531 225.157 7.05031 225.147H7.07031C7.40531 225.147 7.68531 225.417 7.69531 225.757C7.78531 229.007 7.93531 232.367 8.13531 235.747C8.15531 236.092 7.89031 236.387 7.54531 236.412H7.51031ZM400.72 239.057C400.515 239.057 400.31 238.957 400.19 238.767C398.43 235.992 396.58 233.182 394.695 230.417C394.505 230.132 394.575 229.742 394.86 229.547C395.14 229.352 395.535 229.427 395.73 229.712C397.62 232.487 399.48 235.312 401.245 238.097C401.43 238.392 401.345 238.777 401.055 238.962C400.95 239.027 400.835 239.057 400.72 239.057ZM410.84 256.347C410.62 256.347 410.405 256.227 410.29 256.017C408.73 253.117 407.085 250.187 405.395 247.302C405.225 247.007 405.325 246.627 405.62 246.447C405.91 246.267 406.3 246.372 406.475 246.672C408.17 249.567 409.825 252.512 411.39 255.427C411.555 255.727 411.44 256.112 411.135 256.272C411.045 256.322 410.94 256.347 410.84 256.347ZM9.27531 256.372C8.96031 256.372 8.69031 256.137 8.65531 255.817C8.26031 252.452 7.92031 249.087 7.63031 245.837C7.60031 245.492 7.85531 245.187 8.19531 245.157C8.60031 245.122 8.84531 245.382 8.87531 245.722C9.16031 248.967 9.50531 252.317 9.89531 255.677C9.93531 256.017 9.69031 256.327 9.34531 256.367C9.32031 256.372 9.30031 256.372 9.27531 256.372ZM419.585 274.362C419.345 274.362 419.115 274.222 419.01 273.987C417.69 270.942 416.285 267.887 414.84 264.912C414.69 264.602 414.82 264.227 415.13 264.077C415.435 263.922 415.81 264.052 415.965 264.362C417.42 267.362 418.83 270.427 420.16 273.487C420.295 273.807 420.15 274.172 419.835 274.312C419.755 274.342 419.67 274.362 419.585 274.362ZM12.0903 276.212C11.7903 276.212 11.5253 275.992 11.4753 275.687C10.9103 272.342 10.3953 269.007 9.94031 265.772C9.89031 265.432 10.1303 265.112 10.4703 265.067C10.7903 265.012 11.1253 265.252 11.1753 265.597C11.6303 268.822 12.1453 272.147 12.7053 275.482C12.7653 275.822 12.5353 276.142 12.1953 276.202C12.1603 276.207 12.1253 276.212 12.0903 276.212ZM426.645 293.092C426.38 293.092 426.135 292.927 426.05 292.662C425.055 289.552 423.95 286.387 422.76 283.242C422.64 282.917 422.8 282.557 423.125 282.437C423.445 282.297 423.805 282.472 423.93 282.797C425.13 285.962 426.24 289.152 427.24 292.277C427.345 292.607 427.165 292.962 426.835 293.067C426.77 293.087 426.705 293.092 426.645 293.092ZM15.8653 295.887C15.5753 295.887 15.3203 295.687 15.2553 295.392C14.5553 292.152 13.8803 288.842 13.2553 285.562C13.1853 285.222 13.4103 284.897 13.7503 284.832C14.0803 284.742 14.4153 284.987 14.4803 285.327C15.1053 288.597 15.7753 291.897 16.4753 295.132C16.5503 295.467 16.3353 295.802 15.9953 295.872C15.9553 295.882 15.9103 295.887 15.8653 295.887ZM431.645 312.467C431.355 312.467 431.09 312.257 431.035 311.957C430.415 308.772 429.675 305.502 428.83 302.237C428.745 301.902 428.945 301.562 429.28 301.477C429.605 301.392 429.95 301.592 430.04 301.927C430.89 305.212 431.64 308.507 432.26 311.722C432.325 312.057 432.105 312.387 431.765 312.452C431.725 312.462 431.685 312.467 431.645 312.467ZM20.5203 315.372C20.2403 315.372 19.9903 315.182 19.9153 314.902C19.0703 311.672 18.2553 308.427 17.4803 305.177C17.4003 304.837 17.6053 304.502 17.9403 304.422C18.2703 304.342 18.6153 304.547 18.6953 304.882C19.4753 308.127 20.2803 311.362 21.1253 314.587C21.2103 314.922 21.0153 315.262 20.6803 315.352C20.6253 315.362 20.5703 315.372 20.5203 315.372ZM434.12 332.307C433.79 332.307 433.515 332.047 433.495 331.712C433.325 328.447 433.03 325.107 432.61 321.792C432.565 321.452 432.81 321.137 433.15 321.097C433.525 321.067 433.805 321.297 433.85 321.637C434.27 324.982 434.575 328.352 434.745 331.647C434.765 331.992 434.5 332.287 434.155 332.307H434.12ZM26.1453 335.107C25.8803 335.107 25.6353 334.937 25.5503 334.667L25.4003 334.182C24.4253 331.007 23.4653 327.772 22.5603 324.572C22.4653 324.242 22.6553 323.897 22.9903 323.802C23.3353 323.712 23.6703 323.902 23.7603 324.232C24.6703 327.422 25.6253 330.652 26.6003 333.822L26.7403 334.297C26.8453 334.627 26.6603 334.972 26.3303 335.077C26.2703 335.097 26.2053 335.107 26.1453 335.107ZM433.795 352.307C433.78 352.307 433.77 352.307 433.755 352.307C433.41 352.282 433.15 351.982 433.175 351.637C433.405 348.367 433.565 345.017 433.64 341.677C433.645 341.332 433.89 341.082 434.28 341.067C434.62 341.072 434.895 341.357 434.89 341.707C434.815 345.067 434.655 348.437 434.42 351.727C434.4 352.057 434.12 352.307 433.795 352.307ZM32.3403 354.147C32.0853 354.147 31.8403 353.987 31.7503 353.727C30.6703 350.572 29.6103 347.402 28.5753 344.222C28.4703 343.897 28.6503 343.542 28.9803 343.437C29.3103 343.332 29.6603 343.512 29.7653 343.837C30.8003 347.007 31.8553 350.172 32.9353 353.322C33.0453 353.647 32.8703 354.002 32.5453 354.117C32.4753 354.137 32.4103 354.147 32.3403 354.147ZM431.34 372.157C431.305 372.157 431.27 372.152 431.23 372.147C430.89 372.082 430.665 371.757 430.725 371.422C431.3 368.202 431.8 364.887 432.215 361.562C432.255 361.217 432.585 360.972 432.91 361.017C433.255 361.062 433.495 361.372 433.455 361.717C433.04 365.067 432.535 368.402 431.955 371.637C431.9 371.942 431.64 372.157 431.34 372.157ZM39.1153 372.967C38.8653 372.967 38.6253 372.812 38.5353 372.562C37.3553 369.447 36.2003 366.317 35.0653 363.177C34.9453 362.852 35.1153 362.492 35.4403 362.372C35.7703 362.262 36.1203 362.427 36.2403 362.752C37.3703 365.887 38.5253 369.012 39.7003 372.117C39.8203 372.442 39.6603 372.802 39.3403 372.922C39.2653 372.952 39.1903 372.967 39.1153 372.967ZM46.5153 391.587C46.2703 391.587 46.0403 391.442 45.9403 391.202C44.6553 388.127 43.4003 385.032 42.1603 381.912C42.0303 381.592 42.1903 381.227 42.5103 381.102C42.8203 380.977 43.1903 381.127 43.3203 381.447C44.5553 384.562 45.8153 387.652 47.0903 390.722C47.2253 391.042 47.0753 391.407 46.7553 391.537C46.6753 391.572 46.5953 391.587 46.5153 391.587ZM426.695 391.602C426.64 391.602 426.58 391.597 426.515 391.577C426.185 391.477 426 391.127 426.1 390.797C427.05 387.637 427.925 384.397 428.69 381.177C428.775 380.842 429.095 380.637 429.445 380.712C429.78 380.797 429.99 381.132 429.91 381.467C429.135 384.712 428.255 387.972 427.295 391.157C427.215 391.427 426.965 391.602 426.695 391.602ZM54.5353 409.952C54.3003 409.952 54.0753 409.817 53.9703 409.587C52.5853 406.562 51.2153 403.507 49.8703 400.432C49.7353 400.117 49.8803 399.747 50.1953 399.607C50.5103 399.477 50.8803 399.612 51.0203 399.932C52.3603 403.002 53.7203 406.047 55.1053 409.067C55.2503 409.382 55.1103 409.752 54.8003 409.897C54.7153 409.937 54.6253 409.952 54.5353 409.952ZM419.785 410.367C419.7 410.367 419.615 410.352 419.53 410.312C419.215 410.177 419.075 409.807 419.21 409.492C420.54 406.472 421.79 403.362 422.94 400.247C423.06 399.927 423.415 399.757 423.745 399.877C424.065 399.997 424.23 400.357 424.11 400.682C422.955 403.822 421.69 406.952 420.355 409.992C420.25 410.227 420.025 410.367 419.785 410.367ZM63.2203 428.007C62.9903 428.007 62.7703 427.882 62.6603 427.667C61.1653 424.697 59.6853 421.697 58.2253 418.667C58.0753 418.357 58.2053 417.982 58.5203 417.832C58.8403 417.687 59.2053 417.812 59.3553 418.122C60.8103 421.142 62.2803 424.137 63.7753 427.102C63.9303 427.412 63.8103 427.787 63.5003 427.942C63.4103 427.987 63.3153 428.007 63.2203 428.007ZM410.645 428.167C410.535 428.167 410.425 428.142 410.325 428.082C410.025 427.902 409.93 427.522 410.105 427.227C411.8 424.362 413.425 421.422 414.93 418.482C415.09 418.172 415.46 418.052 415.77 418.212C416.08 418.372 416.2 418.747 416.045 419.052C414.525 422.012 412.89 424.977 411.18 427.862C411.065 428.057 410.855 428.167 410.645 428.167ZM399.485 444.767C399.355 444.767 399.22 444.727 399.105 444.642C398.835 444.437 398.78 444.042 398.985 443.767C400.99 441.117 402.94 438.392 404.78 435.657C404.975 435.372 405.36 435.292 405.65 435.487C405.935 435.682 406.01 436.072 405.815 436.357C403.965 439.112 402.005 441.857 399.985 444.522C399.86 444.682 399.675 444.767 399.485 444.767ZM72.6053 445.712C72.3853 445.712 72.1753 445.597 72.0603 445.392C70.4653 442.532 68.8553 439.567 67.2703 436.577C67.1103 436.272 67.2203 435.892 67.5253 435.732C67.8353 435.582 68.2103 435.687 68.3703 435.992C69.9553 438.972 71.5603 441.932 73.1503 444.782C73.3203 445.082 73.2103 445.467 72.9103 445.632C72.8153 445.687 72.7103 445.712 72.6053 445.712ZM386.595 460.057C386.445 460.057 386.29 460.002 386.17 459.887C385.92 459.657 385.905 459.257 386.14 459.007C388.42 456.562 390.65 454.047 392.765 451.542C392.99 451.287 393.385 451.247 393.645 451.467C393.91 451.692 393.945 452.087 393.72 452.352C391.59 454.872 389.35 457.397 387.055 459.862C386.93 459.992 386.765 460.057 386.595 460.057ZM82.7553 462.987C82.5503 462.987 82.3453 462.882 82.2253 462.692C80.4903 459.887 78.7453 456.997 77.0403 454.102C76.8703 453.802 76.9653 453.417 77.2653 453.242C77.5603 453.067 77.9453 453.172 78.1203 453.467C79.8203 456.357 81.5553 459.237 83.2903 462.032C83.4703 462.327 83.3803 462.712 83.0853 462.892C82.9853 462.957 82.8703 462.987 82.7553 462.987ZM372.29 474.052C372.115 474.052 371.945 473.982 371.82 473.842C371.59 473.587 371.615 473.192 371.87 472.962C374.38 470.712 376.83 468.422 379.165 466.142C379.41 465.902 379.81 465.912 380.045 466.152C380.29 466.402 380.285 466.797 380.035 467.037C377.69 469.327 375.225 471.632 372.705 473.892C372.585 473.997 372.435 474.052 372.29 474.052ZM93.7553 479.737C93.5553 479.737 93.3603 479.642 93.2403 479.467C91.3503 476.752 89.4603 473.952 87.6253 471.147C87.4303 470.862 87.5153 470.472 87.8053 470.282C88.0903 470.097 88.4753 470.177 88.6703 470.467C90.5003 473.262 92.3853 476.047 94.2653 478.752C94.4653 479.037 94.3953 479.427 94.1103 479.622C94.0003 479.697 93.8803 479.737 93.7553 479.737ZM356.86 486.817C356.67 486.817 356.485 486.732 356.365 486.572C356.155 486.297 356.205 485.907 356.48 485.697C359.135 483.657 361.77 481.567 364.3 479.477C364.565 479.252 364.955 479.292 365.175 479.557C365.395 479.827 365.36 480.217 365.095 480.437C362.55 482.542 359.91 484.642 357.24 486.687C357.125 486.777 356.99 486.817 356.86 486.817ZM105.69 495.822C105.51 495.822 105.325 495.742 105.2 495.587C103.18 493.032 101.125 490.352 99.0903 487.617C98.8853 487.342 98.9453 486.947 99.2203 486.742C99.5003 486.542 99.8903 486.597 100.1 486.872C102.12 489.597 104.165 492.267 106.18 494.807C106.395 495.077 106.35 495.472 106.08 495.687C105.965 495.777 105.83 495.822 105.69 495.822ZM340.575 498.472C340.375 498.472 340.18 498.372 340.055 498.192C339.865 497.907 339.94 497.517 340.23 497.327C343.01 495.462 345.775 493.547 348.45 491.637C348.725 491.432 349.12 491.502 349.32 491.782C349.52 492.062 349.46 492.457 349.18 492.657C346.495 494.572 343.72 496.492 340.925 498.367C340.82 498.437 340.695 498.472 340.575 498.472ZM323.64 509.162C323.425 509.162 323.22 509.052 323.1 508.857C322.925 508.562 323.02 508.177 323.32 507.997C326.23 506.262 329.1 504.507 331.845 502.772C332.14 502.597 332.525 502.677 332.71 502.967C332.89 503.262 332.805 503.647 332.515 503.832C329.755 505.567 326.88 507.332 323.96 509.072C323.86 509.132 323.75 509.162 323.64 509.162ZM118.7 511.052C118.535 511.052 118.365 510.982 118.245 510.852C116.02 508.447 113.775 505.917 111.575 503.342C111.355 503.082 111.38 502.682 111.645 502.462C111.91 502.242 112.305 502.267 112.525 502.532C114.715 505.097 116.95 507.607 119.16 510.002C119.395 510.257 119.38 510.652 119.125 510.887C119.005 510.997 118.855 511.052 118.7 511.052ZM306.205 519.032C305.98 519.032 305.765 518.912 305.655 518.707C305.49 518.402 305.605 518.022 305.905 517.857C308.855 516.267 311.775 514.657 314.665 513.022C314.965 512.852 315.345 512.957 315.52 513.257C315.685 513.557 315.58 513.937 315.28 514.112C312.385 515.747 309.455 517.362 306.5 518.957C306.405 519.007 306.305 519.032 306.205 519.032ZM132.94 525.132C132.79 525.132 132.64 525.077 132.525 524.972C130.07 522.772 127.61 520.452 125.22 518.077C124.97 517.832 124.97 517.437 125.215 517.192C125.455 516.947 125.85 516.947 126.095 517.187C128.475 519.552 130.92 521.852 133.36 524.042C133.615 524.272 133.635 524.667 133.405 524.927C133.28 525.062 133.11 525.132 132.94 525.132ZM288.405 528.217C288.175 528.217 287.95 528.092 287.845 527.872C287.69 527.562 287.82 527.182 288.125 527.032C291.125 525.542 294.105 524.042 297.06 522.517C297.36 522.362 297.735 522.482 297.9 522.787C298.055 523.092 297.94 523.472 297.63 523.632C294.67 525.157 291.69 526.662 288.68 528.152C288.59 528.197 288.495 528.217 288.405 528.217ZM270.32 536.852C270.085 536.852 269.86 536.717 269.755 536.487C269.61 536.177 269.745 535.802 270.06 535.662C273.095 534.257 276.12 532.837 279.12 531.407C279.425 531.267 279.81 531.392 279.955 531.702C280.105 532.012 279.97 532.387 279.66 532.537C276.65 533.972 273.625 535.387 270.58 536.792C270.5 536.832 270.41 536.852 270.32 536.852ZM148.575 537.627C148.455 537.627 148.33 537.587 148.22 537.512C145.545 535.632 142.84 533.602 140.185 531.472C139.915 531.257 139.87 530.862 140.085 530.592C140.31 530.327 140.7 530.282 140.965 530.497C143.6 532.607 146.28 534.627 148.935 536.487C149.22 536.687 149.29 537.077 149.09 537.362C148.97 537.532 148.775 537.627 148.575 537.627ZM252.08 545.027C251.84 545.027 251.61 544.887 251.505 544.652C251.37 544.337 251.515 543.967 251.83 543.827C254.89 542.492 257.94 541.147 260.97 539.787C261.285 539.647 261.655 539.787 261.795 540.102C261.935 540.417 261.795 540.787 261.485 540.927C258.445 542.287 255.395 543.637 252.33 544.972C252.25 545.007 252.165 545.027 252.08 545.027ZM165.755 547.872C165.66 547.872 165.565 547.852 165.475 547.807C162.54 546.362 159.57 544.747 156.645 542.992C156.35 542.817 156.255 542.432 156.43 542.137C156.605 541.842 156.99 541.742 157.29 541.922C160.185 543.652 163.125 545.257 166.03 546.687C166.34 546.842 166.465 547.212 166.315 547.522C166.205 547.747 165.98 547.872 165.755 547.872ZM233.615 552.782C233.36 552.782 233.12 552.622 233.03 552.367C232.91 552.042 233.08 551.682 233.405 551.567C234.855 551.042 236.34 550.462 237.82 549.837C239.425 549.157 241.035 548.477 242.64 547.792C242.955 547.662 243.325 547.802 243.46 548.117C243.595 548.437 243.45 548.807 243.135 548.937C241.525 549.627 239.915 550.312 238.305 550.992C236.805 551.622 235.3 552.212 233.83 552.742C233.76 552.767 233.685 552.782 233.615 552.782ZM184.43 554.937C184.38 554.937 184.325 554.927 184.275 554.917C181.1 554.077 177.88 553.037 174.7 551.827C174.375 551.707 174.21 551.342 174.335 551.022C174.46 550.697 174.82 550.537 175.14 550.662C178.285 551.852 181.465 552.882 184.59 553.707C184.925 553.797 185.125 554.137 185.035 554.467C184.96 554.752 184.71 554.937 184.43 554.937ZM214.16 557.317C213.84 557.317 213.57 557.077 213.535 556.757C213.5 556.412 213.75 556.107 214.09 556.067C217.355 555.722 220.65 555.162 223.88 554.402C224.23 554.317 224.555 554.537 224.63 554.867C224.715 555.202 224.505 555.542 224.17 555.617C220.885 556.392 217.54 556.957 214.225 557.312C214.2 557.317 214.18 557.317 214.16 557.317ZM204.16 557.747H204.15C200.835 557.682 197.465 557.402 194.125 556.922C193.785 556.872 193.55 556.557 193.6 556.217C193.645 555.872 193.93 555.627 194.305 555.687C197.59 556.162 200.91 556.432 204.175 556.497C204.515 556.507 204.795 556.792 204.785 557.137C204.78 557.477 204.5 557.747 204.16 557.747Z" fill="#D8D5DB"/>
<mask id="mask1_932_1220" style="mask-type:luminance" maskUnits="userSpaceOnUse" x="46" y="82" width="365" height="492">
<path fill-rule="evenodd" clip-rule="evenodd" d="M46.75 82.1294H410.438V573.31H46.75V82.1294Z" fill="white"/>
</mask>
<g mask="url(#mask1_932_1220)">
<path fill-rule="evenodd" clip-rule="evenodd" d="M385.55 494.679C382.75 495.429 379.95 496.879 377.7 499.429C376.4 500.929 374.7 503.729 373.2 506.679C372.85 496.579 372.5 487.979 372.15 482.679C373.1 482.579 373.65 482.579 373.65 482.579C373.65 481.379 373.65 480.179 373.6 478.879C373.35 454.529 370.7 412.179 367.2 369.979C368.45 372.579 369.65 374.979 370.8 377.129C370.85 377.879 370.85 378.629 371 379.429C372.85 389.529 382.1 445.429 384.8 479.129C385.3 485.179 385.55 490.479 385.55 494.679ZM407.8 371.479V371.379C404.9 361.929 395.15 333.779 384.05 305.829L396.35 301.629C396.35 301.629 360.35 237.579 339.3 223.479C339.25 223.429 339.2 223.429 339.15 223.379C331.75 216.479 320.95 211.979 304.8 210.129C304.7 196.779 305.7 174.279 306.85 157.029C315.15 155.129 319.15 145.379 319.7 143.229C320.85 138.829 319.8 135.179 317.65 132.829C318.3 127.379 319.4 116.779 319.1 107.679C318.85 99.3294 317.5 92.2794 313.6 91.4294C313.65 91.2794 313.75 91.1794 313.8 91.0794C315.1 86.9294 312.65 82.3294 312.55 82.1294L310.35 83.3294C310.95 84.3794 312.2 87.6794 311.4 90.2794C307.7 86.1794 296.2 84.5294 283.3 84.7794C265.25 85.0794 244.55 89.2294 238.95 95.7294C235.05 100.229 236.2 102.679 240.25 103.779C239.65 107.979 239.4 111.629 239.3 114.979C238.7 116.529 238.15 118.129 237.6 119.829C236.15 120.829 234.75 122.279 233.7 124.529L236 125.579C236.05 125.479 236.1 125.429 236.15 125.329C235.55 127.879 235 130.479 234.6 133.329C230.1 164.329 222.75 195.179 253.5 195.529C253.45 199.029 253.25 202.429 252.9 205.629C252.65 208.179 252.3 210.579 251.85 212.729C240.15 215.579 231 220.079 224.65 226.129C202.05 244.779 173.5 304.679 173.5 304.679L183.1 309.429C176 323.229 169 337.329 163.75 348.779C139.45 331.979 96.75 300.829 84.15 287.179C84.15 287.129 84.1 287.129 84.05 287.079C84.55 281.829 83.6 273.329 82.2 268.529C82.2 268.429 82.2 268.329 82.15 268.179C82.05 267.929 81.95 267.779 81.9 267.579C81.8 267.279 81.7 266.929 81.6 266.679C81.35 266.029 81.15 265.579 80.95 265.179C77.6 257.779 72.3 254.879 69.15 245.029C67.5 239.779 63.45 241.929 61.9 245.429L50 218.829L46.75 220.279L62.05 254.629C58.45 253.029 55.3 252.079 53.15 252.829C50.2 253.829 46.95 268.679 48.35 273.979C49.75 279.229 64.1 296.129 69.45 299.029C69.85 299.229 70.3 299.379 70.7 299.429C79.35 311.529 136.7 379.629 159.75 391.429C174.05 398.679 184.8 392.429 188.35 383.129C192.95 375.729 201.4 361.279 210.6 344.579C207.6 391.079 201.85 443.479 191 480.229C192 480.379 193.05 480.529 194.1 480.679C191.05 495.929 188.8 515.979 187.2 536.329C198.5 541.129 210 545.479 221.6 549.379C273.35 566.879 327.05 575.629 373.75 572.779C374.5 570.479 374.85 568.079 374.8 565.529C374.55 555.529 374.25 543.279 373.95 531.179C376.45 537.679 379.7 543.029 382.3 544.379C385.05 545.779 398.05 537.829 400.9 533.079C403.7 528.479 405.85 506.379 404.2 500.479C404.1 500.079 403.8 499.779 403.6 499.429C404.2 496.129 405.1 488.929 406.1 479.529C409.3 447.829 413.1 390.879 407.8 371.479Z" fill="#D1CDD3"/>
</g>
<path fill-rule="evenodd" clip-rule="evenodd" d="M280.106 275.57L247.511 254.3C247.511 254.3 215.116 313.915 199.141 348.795C174.856 331.98 132.156 300.845 119.551 287.165C119.516 287.13 119.481 287.11 119.446 287.075C119.941 281.815 118.991 273.34 117.606 268.535C117.576 268.41 117.571 268.31 117.526 268.175C117.456 267.95 117.361 267.77 117.286 267.555C117.186 267.275 117.096 266.92 116.996 266.68C116.731 266.035 116.526 265.565 116.341 265.16C112.991 257.805 107.681 254.865 104.551 245.045C102.371 238.19 96.0863 243.94 96.7063 248.885C96.7063 248.885 97.6413 252.095 98.6963 255.185C94.5413 253.205 90.9513 252.005 88.5313 252.82C85.6013 253.805 82.3263 268.675 83.7313 273.99C85.1113 279.22 99.4813 296.13 104.861 299.04C105.251 299.25 105.661 299.365 106.081 299.43C114.756 311.545 172.106 379.65 195.161 391.41C209.441 398.695 220.166 392.42 223.751 383.14C234.651 365.445 267.636 307.855 280.106 275.57Z" fill="#FFAD69"/>
<path fill-rule="evenodd" clip-rule="evenodd" d="M284.542 238.945C289.482 263.795 269.622 334.51 269.622 334.51L208.872 304.695C208.872 304.695 271.512 173.39 284.542 238.945Z" fill="#EA3939"/>
<path fill-rule="evenodd" clip-rule="evenodd" d="M410.201 565.529C410.201 566.329 410.201 567.129 410.101 567.929C398.651 570.429 386.451 572.079 373.751 572.779C327.051 575.629 273.351 566.879 221.601 549.379C223.401 522.679 226.201 494.829 230.501 476.029L373.601 478.879L384.801 479.129L406.101 479.529L407.351 479.579C408.351 490.979 409.551 537.129 410.201 565.529Z" fill="#232323"/>
<path fill-rule="evenodd" clip-rule="evenodd" d="M328.468 209.296C367.738 210.591 381.013 223.846 387.783 246.771C395.468 272.801 409.008 430.021 409.008 482.556C409.008 482.556 291.488 490.881 226.383 480.211C246.793 411.261 249.003 287.276 249.413 250.341C249.718 222.626 278.683 207.651 328.468 209.296Z" fill="#FF4E4A"/>
<path fill-rule="evenodd" clip-rule="evenodd" d="M293.873 145.007C290.003 142.097 269.823 144.737 275.638 103.652C277.753 88.6621 291.833 98.6671 301.798 100.667C311.763 102.667 305.428 145.747 305.428 145.747L293.873 145.007Z" fill="#232323"/>
<path fill-rule="evenodd" clip-rule="evenodd" d="M344.117 135.166C342.442 146.056 339.092 204.976 340.487 218.656C341.882 232.341 275.702 236.251 284.357 221.171C293.017 206.091 286.872 156.106 286.872 156.106L344.117 135.166Z" fill="#FFAD69"/>
<path fill-rule="evenodd" clip-rule="evenodd" d="M339.535 136.831L286.88 156.111C286.88 156.111 290.435 185.226 288.29 205.721C328.44 202.616 338.745 151.906 339.425 142.141C339.535 140.301 339.59 138.526 339.535 136.831Z" fill="#D88344"/>
<path fill-rule="evenodd" clip-rule="evenodd" d="M269.974 133.312C265.094 166.947 256.809 200.482 297.579 194.962C338.354 189.442 344.689 137.167 344.569 127.307C343.934 74.6923 279.569 67.1723 269.974 133.312Z" fill="#FFAD69"/>
<path fill-rule="evenodd" clip-rule="evenodd" d="M348.966 91.4105C349.016 91.2805 349.126 91.1905 349.171 91.0605C350.496 86.9355 348.056 82.3405 347.951 82.1455L345.751 83.3305C345.771 83.3705 347.771 87.1755 346.791 90.2705C337.861 80.4055 283.916 84.6105 274.321 95.7555C262.131 109.916 299.621 103.531 320.746 99.9555C323.706 112.326 337.116 132.811 340.981 135.721L352.536 136.466C352.536 136.466 358.841 93.5805 348.966 91.4105Z" fill="#232323"/>
<path fill-rule="evenodd" clip-rule="evenodd" d="M438.988 499.413C441.578 485.023 450.108 396.628 443.203 371.498C443.193 371.458 443.198 371.418 443.188 371.373C438.368 355.643 414.433 287.838 397.103 255.733L359.758 266.693C359.758 266.693 391.013 348.263 406.168 377.113C406.213 377.888 406.213 378.648 406.363 379.448C408.593 391.348 421.053 466.853 420.913 494.663C418.153 495.433 415.343 496.883 413.108 499.433C410.263 502.683 405.303 512.018 405.653 516.158C406.648 527.973 413.213 542.048 417.708 544.373C420.458 545.793 433.418 537.808 436.263 533.103C439.063 528.473 441.223 506.388 439.573 500.498C439.463 500.093 439.193 499.768 438.988 499.413Z" fill="#FFAD69"/>
<path fill-rule="evenodd" clip-rule="evenodd" d="M374.688 223.486C395.753 237.566 431.713 301.611 431.713 301.611L367.678 323.486C367.678 323.486 319.118 186.346 374.688 223.486Z" fill="#FF4E4A"/>
<path fill-rule="evenodd" clip-rule="evenodd" d="M304.308 131.648C304.438 133.288 303.553 134.693 302.323 134.793C301.093 134.888 299.993 133.643 299.863 132.003C299.728 130.368 300.618 128.958 301.848 128.863C303.073 128.763 304.173 130.008 304.308 131.648Z" fill="#232323"/>
<path fill-rule="evenodd" clip-rule="evenodd" d="M278.336 132.336C278.466 133.976 277.581 135.381 276.351 135.481C275.126 135.576 274.021 134.331 273.891 132.696C273.756 131.056 274.646 129.646 275.876 129.551C277.101 129.451 278.206 130.696 278.336 132.336Z" fill="#232323"/>
<path fill-rule="evenodd" clip-rule="evenodd" d="M310.694 122.446C307.219 117.111 301.239 118.381 301.179 118.391L300.629 115.951C300.944 115.886 308.374 114.311 312.789 121.081L310.694 122.446Z" fill="#232323"/>
<path fill-rule="evenodd" clip-rule="evenodd" d="M271.38 125.561L269.11 124.521C272.48 117.166 280.055 117.641 280.375 117.656L280.2 120.151C279.965 120.136 274.02 119.821 271.38 125.561Z" fill="#232323"/>
<path fill-rule="evenodd" clip-rule="evenodd" d="M295.961 162.616C294.301 162.616 293.251 162.431 293.211 162.421L293.666 159.966C294.126 160.051 305.101 161.911 311.216 151.736L313.356 153.026C308.311 161.416 300.186 162.616 295.961 162.616Z" fill="#232323"/>
<path fill-rule="evenodd" clip-rule="evenodd" d="M276.739 151.222L283.099 129.542L285.494 130.242L280.089 148.677L288.844 148.562L288.879 151.062L276.739 151.222Z" fill="#D88344"/>
<path fill-rule="evenodd" clip-rule="evenodd" d="M114.762 284.682L111.492 286.142L82.1416 220.287L85.4066 218.827L114.762 284.682Z" fill="#232323"/>
<path fill-rule="evenodd" clip-rule="evenodd" d="M334.229 139.445C330.544 147.745 325.934 155.775 337.499 157.265C349.064 158.76 354.444 145.775 355.099 143.23C358.594 129.66 341.469 123.125 334.229 139.445Z" fill="#FFAD69"/>
<path fill-rule="evenodd" clip-rule="evenodd" d="M161.226 0.00195312H43.5715C39.4715 0.00195312 36.1465 3.32195 36.1465 7.42195V49.317C36.1465 53.417 39.4715 56.742 43.5715 56.742H50.7365L58.8165 67.537C60.6115 69.937 64.3765 69.222 65.1715 66.332L67.7915 56.742H161.226C165.326 56.742 168.646 53.417 168.646 49.317V7.42195C168.646 3.32195 165.326 0.00195312 161.226 0.00195312Z" fill="#4D8DFF"/>
<mask id="mask2_932_1220" style="mask-type:luminance" maskUnits="userSpaceOnUse" x="0" y="0" width="520" height="574">
<path fill-rule="evenodd" clip-rule="evenodd" d="M0 573.31H519.785V0H0V573.31Z" fill="white"/>
</mask>
<g mask="url(#mask2_932_1220)">
<path fill-rule="evenodd" clip-rule="evenodd" d="M47.7051 13.4951H151.73V10.9951H47.7051V13.4951Z" fill="white"/>
<path fill-rule="evenodd" clip-rule="evenodd" d="M47.7051 25.3252H116.395V22.8252H47.7051V25.3252Z" fill="white"/>
<path fill-rule="evenodd" clip-rule="evenodd" d="M47.7051 37.1548H133.565V34.6548H47.7051V37.1548Z" fill="white"/>
<path fill-rule="evenodd" clip-rule="evenodd" d="M133.565 140.192H43.5704C39.4704 140.192 36.1504 143.517 36.1504 147.612V189.507C36.1504 193.607 39.4704 196.932 43.5704 196.932H50.7354L58.8154 207.727C60.6104 210.127 64.3804 209.412 65.1704 206.522L67.7904 196.932H133.565C137.665 196.932 140.985 193.607 140.985 189.507V147.612C140.985 143.517 137.665 140.192 133.565 140.192Z" fill="#FF4E4A"/>
<path fill-rule="evenodd" clip-rule="evenodd" d="M47.7051 153.685H95.5901V151.185H47.7051V153.685Z" fill="white"/>
<path fill-rule="evenodd" clip-rule="evenodd" d="M105.5 153.685H122.01V151.185H105.5V153.685Z" fill="white"/>
<path fill-rule="evenodd" clip-rule="evenodd" d="M47.7051 165.515H81.7201V163.015H47.7051V165.515Z" fill="white"/>
<path fill-rule="evenodd" clip-rule="evenodd" d="M47.7051 177.345H113.42V174.845H47.7051V177.345Z" fill="white"/>
<path fill-rule="evenodd" clip-rule="evenodd" d="M103.429 70.0581H212.999C217.094 70.0581 220.414 73.3831 220.414 77.4781V119.378C220.414 123.473 217.094 126.798 212.999 126.798H205.829L197.749 137.598C195.954 139.993 192.184 139.278 191.399 136.388L188.774 126.798H103.429C99.3288 126.798 96.0088 123.473 96.0088 119.378V77.4781C96.0088 73.3831 99.3288 70.0581 103.429 70.0581Z" fill="#FFC84D"/>
<path fill-rule="evenodd" clip-rule="evenodd" d="M164.94 83.5498H208.86V81.0498H164.94V83.5498Z" fill="white"/>
<path fill-rule="evenodd" clip-rule="evenodd" d="M113.425 95.3848H208.86V92.8848H113.425V95.3848Z" fill="white"/>
<path fill-rule="evenodd" clip-rule="evenodd" d="M161.97 107.215H208.86V104.715H161.97V107.215Z" fill="white"/>
<path fill-rule="evenodd" clip-rule="evenodd" d="M132.575 107.215H154.04V104.715H132.575V107.215Z" fill="white"/>
<path fill-rule="evenodd" clip-rule="evenodd" d="M293.439 276.82C274.324 276.82 258.769 292.375 258.769 311.49C258.769 330.61 274.324 346.165 293.439 346.165C312.559 346.165 328.114 330.61 328.114 311.49C328.114 292.375 312.559 276.82 293.439 276.82ZM293.439 348.665C272.944 348.665 256.269 331.99 256.269 311.49C256.269 290.995 272.944 274.32 293.439 274.32C313.939 274.32 330.614 290.995 330.614 311.49C330.614 331.99 313.939 348.665 293.439 348.665Z" fill="white"/>
</g>
</svg>
