<svg width="533" height="521" viewBox="0 0 533 521" fill="none" xmlns="http://www.w3.org/2000/svg">
<mask id="mask0_932_1091" style="mask-type:luminance" maskUnits="userSpaceOnUse" x="0" y="53" width="533" height="468">
<path fill-rule="evenodd" clip-rule="evenodd" d="M0.000976562 53.9482H532.615V520.035H0.000976562V53.9482Z" fill="white"/>
</mask>
<g mask="url(#mask0_932_1091)">
<path fill-rule="evenodd" clip-rule="evenodd" d="M499.715 308.198C498.065 310.848 496.42 313.453 494.665 316.048C479.315 339.103 460.265 361.248 439.17 381.603C438.215 382.548 437.215 383.503 436.22 384.448C433.215 387.298 430.115 390.153 427.015 392.898C421.67 397.803 416.165 402.548 410.565 407.098C407.615 409.598 404.57 412.053 401.565 414.448C366.67 442.053 329.37 466.203 292.615 484.398C281.22 490.103 269.82 495.198 258.57 499.598C199.865 522.853 145.22 528.303 107.52 505.248C95.5148 497.948 85.2648 487.748 77.1148 474.303C75.8148 472.148 74.5148 469.998 73.2148 467.853C61.1698 447.698 49.6648 427.453 39.5648 407.098C37.1648 402.348 34.9198 397.653 32.7198 392.898C-3.93017 314.148 -17.8852 234.448 34.0648 156.048C54.2648 125.553 87.4198 101.803 127.215 84.9982C138.57 80.1532 150.415 75.9482 162.72 72.2982C168.77 70.3982 174.865 68.7482 181.115 67.2532C188.97 65.2532 196.965 63.5032 205.065 61.9982C211.27 60.8032 217.465 59.7532 223.715 58.8482C226.315 58.5032 228.915 58.1532 231.515 57.7982C249.965 55.4532 268.665 54.1482 287.27 54.0032C289.715 53.9482 292.165 53.9482 294.57 53.9482C305.82 54.0032 316.965 54.4482 327.965 55.3532C330.915 55.5532 333.865 55.8032 336.815 56.1482C392.965 61.6032 444.465 77.6982 479.465 104.403C487.115 110.253 493.97 116.548 499.915 123.403C501.02 124.653 502.07 125.903 503.065 127.198C503.415 127.598 503.72 127.998 504.065 128.403C511.315 137.498 517.115 146.903 521.47 156.503C543.72 204.953 530.715 258.398 499.715 308.198Z" fill="#FDE6D6"/>
</g>
<path fill-rule="evenodd" clip-rule="evenodd" d="M386.541 454.639C373.051 468.779 363.446 488.999 377.956 500.979C394.161 514.354 427.586 511.249 444.866 486.014C455.911 469.894 461.756 444.409 449.521 430.114C439.046 417.874 403.091 437.289 386.541 454.639Z" fill="#E8E5EA"/>
<path fill-rule="evenodd" clip-rule="evenodd" d="M190.366 450.951C187.016 451.096 183.616 451.201 180.316 451.201C179.966 451.201 179.716 451.496 179.716 451.851C179.716 452.146 179.966 452.451 180.316 452.451C183.666 452.451 187.016 452.346 190.416 452.201C190.766 452.201 191.016 451.896 191.016 451.551C190.966 451.251 190.666 450.951 190.366 450.951ZM170.316 451.051C166.916 450.951 163.516 450.751 160.316 450.551C159.866 450.501 159.666 450.751 159.616 451.096C159.616 451.451 159.866 451.751 160.216 451.801C163.466 452.001 166.866 452.201 170.266 452.301C170.616 452.301 170.916 452.051 170.916 451.696C170.916 451.351 170.666 451.051 170.316 451.051ZM210.366 449.501C207.016 449.846 203.666 450.151 200.366 450.401C200.016 450.401 199.766 450.696 199.766 451.051C199.816 451.401 200.066 451.651 200.416 451.651H200.466C203.766 451.401 207.116 451.096 210.466 450.751C210.816 450.696 211.066 450.401 211.066 450.046C211.016 449.701 210.716 449.446 210.366 449.501ZM150.316 449.551C147.016 449.196 143.666 448.701 140.416 448.146C140.066 448.101 139.766 448.301 139.666 448.651C139.616 448.996 139.866 449.301 140.216 449.351C143.466 449.951 146.816 450.401 150.166 450.801H150.266C150.566 450.801 150.816 450.601 150.866 450.246C150.916 449.901 150.666 449.596 150.316 449.551ZM230.266 446.851C226.866 447.346 223.566 447.851 220.316 448.301C219.966 448.346 219.716 448.651 219.766 448.996C219.816 449.301 220.116 449.551 220.416 449.551H220.466C223.716 449.101 227.066 448.596 230.466 448.051C230.766 448.001 231.016 447.701 230.966 447.346C230.916 447.001 230.616 446.801 230.266 446.851ZM130.616 446.151C127.316 445.401 124.066 444.551 120.916 443.651C120.566 443.551 120.216 443.701 120.116 444.051C120.016 444.396 120.216 444.751 120.566 444.846C123.616 445.696 126.716 446.551 129.866 447.301C130.016 447.346 130.166 447.346 130.316 447.401H130.466C130.566 447.401 130.666 447.346 130.766 447.301L130.816 447.251C130.966 447.201 131.016 447.051 131.066 446.896C131.116 446.601 130.916 446.251 130.616 446.151ZM249.966 443.101C246.716 443.796 243.366 444.501 240.216 445.101H240.116C239.766 445.151 239.566 445.446 239.616 445.801C239.666 446.096 239.966 446.296 240.266 446.296H240.366C242.616 445.896 244.916 445.446 247.216 444.951C248.216 444.751 249.216 444.551 250.216 444.301C250.566 444.251 250.766 443.901 250.716 443.551C250.616 443.251 250.316 443.001 249.966 443.101ZM269.466 438.346C266.316 439.196 263.066 440.046 259.766 440.846C259.416 440.951 259.216 441.251 259.316 441.601C259.366 441.896 259.616 442.096 259.916 442.096C259.966 442.096 260.016 442.096 260.066 442.051C263.366 441.251 266.666 440.401 269.816 439.596C270.116 439.501 270.316 439.151 270.266 438.796C270.166 438.501 269.816 438.301 269.466 438.346ZM111.416 440.446C110.316 440.046 109.266 439.646 108.166 439.196C106.116 438.396 104.166 437.501 102.216 436.601C101.916 436.451 101.516 436.601 101.366 436.896C101.216 437.201 101.366 437.601 101.666 437.746C103.766 438.751 105.966 439.646 108.166 440.551C109.066 440.951 110.016 441.296 110.966 441.651H111.216C111.466 441.651 111.716 441.496 111.816 441.251C111.916 440.951 111.766 440.601 111.416 440.446ZM288.716 432.746C288.066 432.946 287.416 433.196 286.716 433.396C284.266 434.151 281.716 434.951 279.166 435.696C278.816 435.801 278.616 436.096 278.716 436.451C278.816 436.751 279.066 436.896 279.316 436.896H279.516C282.016 436.151 284.566 435.401 286.966 434.646C287.716 434.396 288.416 434.196 289.116 433.951C289.416 433.851 289.616 433.501 289.516 433.146C289.416 432.851 289.066 432.651 288.716 432.746ZM93.3156 432.001L92.9656 431.751C90.1656 430.151 87.4656 428.451 84.8656 426.651C84.6156 426.451 84.2156 426.551 84.0156 426.851C83.8156 427.096 83.9156 427.501 84.1656 427.701C86.7656 429.446 89.5156 431.201 92.3156 432.851L92.7156 433.101C92.8156 433.146 92.9156 433.146 93.0156 433.146C93.2656 433.146 93.4656 433.051 93.5656 432.851C93.7656 432.546 93.6156 432.146 93.3156 432.001ZM307.716 426.296C304.566 427.451 301.366 428.551 298.266 429.646C297.916 429.751 297.766 430.101 297.866 430.401C297.966 430.696 298.166 430.846 298.466 430.846C298.516 430.846 298.566 430.846 298.666 430.801C301.816 429.751 304.966 428.596 308.116 427.451C308.466 427.346 308.616 427.001 308.516 426.651C308.366 426.296 307.966 426.151 307.716 426.296ZM327.216 419.301C327.066 418.951 326.716 418.796 326.416 418.951C323.366 420.201 320.216 421.496 317.066 422.701C316.766 422.851 316.616 423.196 316.716 423.551C316.816 423.796 317.066 423.951 317.316 423.951C317.366 423.951 317.466 423.901 317.566 423.901C320.716 422.651 323.866 421.351 326.866 420.101C327.216 419.951 327.366 419.596 327.216 419.301ZM76.8656 420.696C75.7156 419.801 74.5656 418.851 73.5156 417.946C72.0656 416.696 70.7156 415.401 69.3656 414.151C69.1156 413.901 68.7156 413.901 68.4656 414.151C68.2156 414.396 68.2156 414.801 68.4656 415.046C70.0656 416.551 71.7156 418.051 73.4656 419.501C74.3156 420.246 75.1656 421.001 76.0656 421.696C76.1656 421.801 76.3156 421.851 76.4656 421.851C76.6656 421.851 76.8156 421.751 76.9656 421.601C77.1656 421.351 77.1156 420.951 76.8656 420.696ZM345.616 411.096C345.466 410.751 345.066 410.646 344.766 410.801C341.866 412.146 338.916 413.551 335.616 415.001C335.316 415.101 335.166 415.501 335.316 415.801C335.416 416.051 335.666 416.201 335.866 416.201C335.966 416.201 336.066 416.151 336.116 416.096C339.416 414.646 342.416 413.301 345.316 411.896C345.616 411.751 345.766 411.401 345.616 411.096ZM62.4656 406.896C60.2656 404.396 58.1656 401.751 56.2656 399.101C56.0656 398.796 55.6656 398.751 55.3656 398.951C55.1156 399.151 55.0656 399.551 55.2656 399.801C57.0156 402.301 58.9656 404.751 60.9656 407.096C61.1656 407.301 61.3156 407.546 61.5156 407.746C61.6156 407.851 61.8156 407.946 61.9656 407.946C62.1156 407.946 62.2656 407.901 62.4156 407.801C62.6156 407.601 62.6656 407.346 62.5656 407.096C62.5656 407.001 62.5156 406.946 62.4656 406.896ZM363.566 402.051C363.416 401.751 363.016 401.651 362.716 401.801C359.866 403.346 356.816 404.901 353.816 406.401C353.516 406.551 353.416 406.851 353.516 407.096C353.466 407.146 353.516 407.201 353.516 407.251C353.616 407.451 353.866 407.601 354.066 407.601C354.166 407.601 354.266 407.546 354.366 407.501C354.616 407.346 354.916 407.251 355.166 407.096C357.966 405.751 360.666 404.301 363.316 402.901C363.616 402.746 363.716 402.346 363.566 402.051ZM381.066 392.201C380.916 391.896 380.516 391.801 380.216 391.946C379.666 392.251 379.166 392.601 378.616 392.901C376.316 394.301 373.966 395.646 371.516 397.001C371.216 397.146 371.116 397.546 371.316 397.851C371.416 398.051 371.616 398.146 371.866 398.146C371.966 398.146 372.066 398.146 372.166 398.101C375.116 396.401 378.066 394.701 380.866 393.051C380.916 393.001 380.966 392.946 381.016 392.901C381.216 392.701 381.216 392.451 381.066 392.201ZM50.8656 390.696C49.1656 387.851 47.6156 384.846 46.2656 381.851C46.1156 381.551 45.7156 381.401 45.4156 381.551C45.1156 381.696 44.9656 382.051 45.1156 382.401C46.5156 385.401 48.0656 388.451 49.7656 391.351C49.8656 391.551 50.0656 391.651 50.3156 391.651C50.4156 391.651 50.5156 391.601 50.6156 391.551C50.9156 391.401 51.0156 391.001 50.8656 390.696ZM398.116 381.601C398.116 381.551 398.066 381.496 398.066 381.451C397.866 381.151 397.466 381.096 397.216 381.251C397.016 381.351 396.866 381.496 396.666 381.601C395.266 382.546 393.766 383.551 392.316 384.446C391.166 385.246 389.966 386.001 388.816 386.751C388.516 386.896 388.416 387.301 388.616 387.601C388.716 387.801 388.916 387.901 389.116 387.901C389.216 387.901 389.366 387.851 389.466 387.801C391.216 386.696 392.916 385.601 394.616 384.446C395.716 383.751 396.816 383.051 397.916 382.301C398.116 382.146 398.216 381.851 398.116 381.601ZM414.416 369.801C414.216 369.501 413.816 369.446 413.566 369.646C410.916 371.651 408.166 373.651 405.466 375.601C405.166 375.801 405.116 376.151 405.316 376.451C405.466 376.601 405.616 376.696 405.816 376.696C405.966 376.696 406.066 376.696 406.216 376.601C408.916 374.646 411.666 372.651 414.316 370.646C414.616 370.446 414.666 370.046 414.416 369.801ZM39.5656 363.051C39.4656 362.701 39.1156 362.501 38.7656 362.601C38.4656 362.701 38.2656 363.051 38.3156 363.346C39.2156 366.651 40.2156 369.901 41.3156 373.001C41.4156 373.301 41.6156 373.451 41.9156 373.451C41.9656 373.451 42.0156 373.451 42.1156 373.396C42.4156 373.301 42.6156 372.946 42.4656 372.601C41.3656 369.501 40.4156 366.296 39.5656 363.051ZM430.066 357.096C429.816 356.851 429.416 356.851 429.166 357.051C426.716 359.151 424.166 361.296 421.466 363.501C421.216 363.701 421.166 364.101 421.366 364.351C421.516 364.501 421.666 364.596 421.866 364.596C422.016 364.596 422.116 364.551 422.266 364.446C424.966 362.301 427.566 360.101 429.966 358.001C430.266 357.746 430.266 357.401 430.066 357.096ZM36.0156 343.346C36.0156 343.051 35.7156 342.746 35.3656 342.801C35.0156 342.851 34.7656 343.146 34.8156 343.501C35.1656 346.896 35.6156 350.246 36.1656 353.501C36.2156 353.796 36.5156 353.996 36.8156 353.996H36.9156C37.2656 353.951 37.4656 353.651 37.4156 353.301C36.8656 350.046 36.3656 346.751 36.0156 343.346ZM444.766 343.451C444.516 343.196 444.116 343.196 443.866 343.451C441.566 345.751 439.116 348.101 436.666 350.401C436.416 350.601 436.366 351.001 436.616 351.251C436.716 351.401 436.916 351.451 437.066 351.451C437.216 351.451 437.366 351.401 437.516 351.296C439.966 348.996 442.416 346.651 444.766 344.301C445.016 344.051 445.016 343.651 444.766 343.451ZM458.316 328.596C458.066 328.346 457.666 328.396 457.416 328.651C455.366 331.151 453.116 333.701 450.816 336.201C450.566 336.451 450.616 336.851 450.866 337.096C450.966 337.201 451.116 337.251 451.266 337.251C451.466 337.251 451.616 337.146 451.716 337.051C454.066 334.501 456.316 331.946 458.416 329.446C458.616 329.196 458.566 328.796 458.316 328.596ZM35.2656 327.851C35.2656 326.401 35.2656 324.901 35.3156 323.396C35.3156 323.051 35.0656 322.746 34.7156 322.746C34.3656 322.746 34.0656 323.001 34.0656 323.346C34.0156 324.846 34.0156 326.351 34.0156 327.851C34.0156 329.751 34.0656 331.601 34.1156 333.451C34.1156 333.751 34.4156 334.051 34.7156 334.051H34.7656C35.1156 333.996 35.3656 333.751 35.3656 333.396C35.3156 331.551 35.2656 329.701 35.2656 327.851ZM470.416 312.601C470.116 312.401 469.766 312.451 469.566 312.746C467.716 315.446 465.716 318.196 463.716 320.846C463.466 321.151 463.566 321.551 463.816 321.751C463.916 321.801 464.066 321.851 464.216 321.851C464.366 321.851 464.566 321.801 464.716 321.601C466.716 318.951 468.716 316.201 470.566 313.451C470.766 313.146 470.716 312.746 470.416 312.601ZM36.4156 302.746C36.0156 302.651 35.7656 302.901 35.7156 303.251C35.2656 306.651 34.9156 310.001 34.6156 313.301C34.6156 313.651 34.8656 313.951 35.2156 313.951H35.2656C35.5656 313.951 35.8656 313.701 35.8656 313.396C36.1656 310.101 36.5156 306.751 36.9656 303.451C37.0156 303.101 36.7656 302.746 36.4156 302.746ZM480.666 295.301C480.366 295.201 480.016 295.301 479.816 295.601C478.366 298.451 476.716 301.401 474.966 304.301C474.766 304.596 474.866 305.001 475.166 305.201C475.266 305.246 475.366 305.246 475.466 305.246C475.716 305.246 475.916 305.151 476.016 304.951C477.816 302.001 479.466 299.051 480.966 296.151C481.116 295.846 480.966 295.446 480.666 295.301ZM40.0156 282.946C39.6656 282.901 39.3656 283.101 39.2656 283.451C38.5656 286.751 37.8656 290.046 37.2656 293.301C37.2156 293.651 37.4656 293.951 37.7656 294.051H37.9156C38.2156 294.051 38.4656 293.851 38.5156 293.551C39.1156 290.301 39.7656 287.001 40.5156 283.701C40.5656 283.346 40.3656 283.051 40.0156 282.946ZM488.566 276.851C488.216 276.751 487.866 276.896 487.766 277.251C486.716 280.301 485.466 283.451 484.116 286.551C483.966 286.896 484.116 287.251 484.466 287.401C484.516 287.401 484.616 287.451 484.716 287.451C484.916 287.451 485.166 287.301 485.266 287.051C486.616 283.901 487.866 280.751 488.916 277.651C489.066 277.346 488.866 277.001 488.566 276.851ZM45.2156 263.551C44.9156 263.451 44.5656 263.651 44.4656 263.996C43.4656 267.201 42.5156 270.446 41.6656 273.651C41.6156 273.996 41.8156 274.351 42.1156 274.396C42.1656 274.446 42.2156 274.446 42.3156 274.446C42.5656 274.446 42.8156 274.251 42.9156 273.996C43.7156 270.801 44.6656 267.546 45.6656 264.351C45.7656 263.996 45.5656 263.651 45.2156 263.551ZM493.866 257.501C493.516 257.401 493.216 257.651 493.116 257.946C492.416 261.151 491.566 264.396 490.666 267.701C490.616 268.001 490.766 268.346 491.116 268.451C491.166 268.451 491.216 268.501 491.266 268.501C491.566 268.501 491.816 268.301 491.866 268.001C492.766 264.751 493.616 261.451 494.366 258.251C494.416 257.901 494.216 257.546 493.866 257.501ZM51.7656 244.551C51.4156 244.446 51.0656 244.596 50.9656 244.901C49.7656 248.051 48.6156 251.251 47.5656 254.396C47.4156 254.701 47.6156 255.046 47.9156 255.201H48.1156C48.4156 255.201 48.6156 255.046 48.7156 254.801C49.8156 251.651 50.9656 248.451 52.1156 245.351C52.2156 245.046 52.0656 244.646 51.7656 244.551ZM497.466 237.701C497.166 237.651 496.816 237.901 496.766 238.251C496.316 241.551 495.766 244.846 495.166 248.146C495.116 248.501 495.316 248.796 495.666 248.901H495.766C496.066 248.901 496.316 248.701 496.416 248.396C497.016 245.046 497.566 241.696 498.016 238.451C498.016 238.101 497.816 237.746 497.466 237.701ZM59.3656 225.951C59.0656 225.801 58.7156 225.951 58.5656 226.296C57.2156 229.351 55.8656 232.451 54.6156 235.551C54.5156 235.846 54.6656 236.251 54.9656 236.351C55.0656 236.401 55.1156 236.401 55.2156 236.401C55.4656 236.401 55.6656 236.251 55.7656 236.001C57.0156 232.946 58.3656 229.846 59.7156 226.801C59.8656 226.451 59.7156 226.096 59.3656 225.951ZM499.216 217.701C498.916 217.746 498.616 217.946 498.566 218.301C498.416 221.651 498.216 225.001 497.916 228.301C497.866 228.651 498.116 228.951 498.466 228.996H498.516C498.816 228.996 499.116 228.751 499.116 228.396C499.466 225.101 499.666 221.751 499.816 218.346C499.866 218.051 499.566 217.746 499.216 217.701ZM68.0156 207.801C67.7156 207.651 67.3156 207.746 67.1656 208.051C65.6656 211.051 64.1656 214.101 62.7656 217.096C62.6156 217.451 62.7656 217.801 63.0656 217.946C63.1656 218.001 63.2156 218.001 63.3156 218.001C63.5656 218.001 63.7656 217.901 63.8656 217.651C65.3156 214.646 66.8156 211.601 68.3156 208.651C68.4656 208.301 68.3156 207.946 68.0156 207.801ZM499.816 198.246C499.816 197.901 499.516 197.651 499.166 197.651C498.816 197.651 498.566 197.951 498.566 198.301C498.716 201.601 498.816 204.951 498.816 208.301C498.816 208.651 499.116 208.951 499.416 208.951C499.766 208.951 500.066 208.651 500.066 208.301C500.066 204.951 499.966 201.551 499.816 198.246ZM77.5156 190.051C77.2156 189.901 76.8156 190.001 76.6656 190.301C74.9656 193.246 73.3656 196.251 71.8156 199.151C71.6656 199.451 71.7656 199.801 72.0656 199.951C72.1656 200.001 72.2656 200.051 72.3656 200.051C72.5656 200.051 72.8156 199.951 72.9156 199.701C74.4656 196.851 76.0656 193.851 77.7656 190.901C77.9156 190.601 77.8156 190.251 77.5156 190.051ZM497.916 178.151C497.866 177.801 497.566 177.551 497.216 177.651C496.866 177.701 496.666 178.001 496.716 178.346C497.166 181.651 497.566 185.001 497.866 188.301C497.916 188.651 498.166 188.851 498.516 188.851H498.566C498.916 188.851 499.166 188.551 499.116 188.201C498.816 184.851 498.416 181.501 497.916 178.151ZM87.7656 172.801C87.5156 172.601 87.1156 172.701 86.9156 173.001C85.1656 175.846 83.4156 178.701 81.7156 181.601C81.5156 181.901 81.6156 182.251 81.9156 182.451C82.0156 182.501 82.1156 182.551 82.2156 182.551C82.4656 182.551 82.6656 182.451 82.7656 182.251C84.4656 179.351 86.2156 176.501 87.9656 173.651C88.1656 173.346 88.0656 173.001 87.7656 172.801ZM496.216 167.851H496.166C495.616 164.701 494.866 161.551 494.116 158.346C494.066 158.001 493.716 157.801 493.366 157.901C493.066 157.951 492.816 158.301 492.916 158.651C493.666 161.701 494.316 164.751 494.916 167.801C494.966 168.001 495.016 168.246 495.066 168.451C495.116 168.751 495.366 168.951 495.666 168.951H495.766C496.116 168.851 496.316 168.551 496.266 168.201C496.266 168.101 496.216 167.951 496.216 167.851ZM99.0156 155.651C98.7656 155.451 98.3656 155.501 98.1656 155.801L97.9156 156.151C96.0656 158.901 94.1656 161.701 92.3656 164.496C92.1656 164.801 92.2156 165.201 92.5156 165.401C92.6156 165.451 92.7656 165.501 92.8656 165.501C93.0656 165.501 93.2656 165.401 93.3656 165.201C95.2156 162.401 97.0656 159.596 98.9656 156.851L99.2156 156.501C99.3656 156.251 99.3156 155.846 99.0156 155.651ZM490.816 146.351C490.066 143.851 489.266 141.401 488.466 139.001C488.366 138.651 487.966 138.501 487.666 138.601C487.316 138.751 487.166 139.101 487.266 139.401C488.216 142.151 489.116 144.951 489.966 147.801C490.066 148.201 490.216 148.551 490.316 148.951C490.416 149.251 490.666 149.401 490.916 149.401H491.116C491.416 149.301 491.616 148.951 491.516 148.601C491.316 147.851 491.066 147.096 490.816 146.351ZM110.566 139.201C110.266 139.001 109.866 139.051 109.666 139.351C107.766 142.051 105.816 144.751 103.866 147.551C103.666 147.801 103.766 148.201 104.016 148.401C104.166 148.501 104.266 148.501 104.416 148.501C104.566 148.501 104.766 148.451 104.916 148.246C106.816 145.501 108.766 142.751 110.716 140.051C110.916 139.751 110.816 139.401 110.566 139.201ZM122.466 123.001C122.166 122.801 121.816 122.851 121.566 123.101C119.566 125.746 117.566 128.451 115.566 131.201C115.366 131.451 115.466 131.851 115.716 132.051C115.816 132.151 115.966 132.201 116.066 132.201C116.266 132.201 116.466 132.096 116.616 131.901C118.566 129.201 120.566 126.501 122.566 123.851C122.766 123.601 122.716 123.201 122.466 123.001ZM484.916 129.551C484.616 128.801 484.266 128.001 483.916 127.201C483.766 126.801 483.566 126.351 483.366 125.901C482.616 124.051 481.766 122.151 480.916 120.301C480.766 120.001 480.416 119.851 480.066 120.001C479.766 120.151 479.616 120.501 479.766 120.801C480.366 122.096 480.966 123.401 481.516 124.701C481.916 125.551 482.266 126.401 482.566 127.201C482.966 128.051 483.316 128.851 483.616 129.701C483.666 129.801 483.716 129.901 483.766 130.001C483.866 130.251 484.066 130.401 484.316 130.401C484.416 130.401 484.466 130.401 484.566 130.351C484.816 130.251 485.016 130.001 484.966 129.701C484.966 129.651 484.966 129.596 484.916 129.551ZM134.816 107.096C134.516 106.901 134.166 106.951 133.916 107.201C131.866 109.701 129.916 112.301 127.916 114.851C127.866 114.951 127.766 115.001 127.716 115.101C127.466 115.401 127.516 115.801 127.816 116.001C127.916 116.101 128.066 116.151 128.166 116.151C128.316 116.151 128.466 116.101 128.566 116.001C128.616 115.951 128.616 115.951 128.666 115.901C130.766 113.201 132.816 110.601 134.916 108.001C135.116 107.751 135.066 107.351 134.816 107.096ZM476.516 111.251C475.866 110.051 475.266 108.901 474.616 107.751C473.666 105.951 472.666 104.201 471.616 102.451C471.466 102.151 471.066 102.051 470.766 102.201C470.466 102.401 470.366 102.751 470.566 103.051C471.616 104.851 472.616 106.701 473.666 108.601C474.216 109.651 474.816 110.746 475.366 111.851C475.516 112.051 475.716 112.151 475.916 112.151C476.016 112.151 476.116 112.151 476.216 112.096C476.516 111.951 476.666 111.551 476.516 111.251ZM147.666 91.6515C147.366 91.4515 147.016 91.5015 146.766 91.7515C144.616 94.2515 142.416 96.8015 140.266 99.4015C140.066 99.7015 140.066 100.101 140.366 100.301C140.466 100.401 140.616 100.451 140.766 100.451C140.916 100.451 141.116 100.351 141.216 100.201C143.366 97.6015 145.566 95.0515 147.716 92.5515C147.916 92.3015 147.916 91.9015 147.666 91.6515ZM466.316 93.8515C464.516 91.0515 462.616 88.3015 460.666 85.5515C460.466 85.2515 460.066 85.2015 459.766 85.4015C459.516 85.6015 459.416 86.0015 459.616 86.3015C461.566 89.0015 463.516 91.7515 465.316 94.5515C465.416 94.7015 465.616 94.8015 465.816 94.8015C465.916 94.8015 466.066 94.8015 466.166 94.7015C466.466 94.5515 466.516 94.1515 466.316 93.8515ZM161.066 76.7015C160.816 76.5015 160.416 76.5015 160.216 76.7515C157.916 79.1515 155.666 81.6515 153.416 84.1515C153.166 84.4515 153.216 84.8015 153.466 85.0515C153.566 85.1515 153.716 85.2015 153.866 85.2015C154.016 85.2015 154.216 85.1515 154.316 85.0015C156.566 82.5015 158.866 80.0015 161.116 77.6015C161.366 77.3515 161.316 76.9515 161.066 76.7015ZM454.566 77.5515C452.466 74.9015 450.266 72.3015 448.066 69.8015C447.866 69.5515 447.466 69.5515 447.216 69.7515C446.916 70.0015 446.916 70.4015 447.166 70.6515C449.316 73.1015 451.516 75.7015 453.566 78.3015C453.716 78.4515 453.866 78.5515 454.066 78.5515C454.216 78.5515 454.316 78.5015 454.466 78.4015C454.716 78.2015 454.766 77.8015 454.566 77.5515ZM175.166 62.4015C174.916 62.1515 174.566 62.1515 174.316 62.4015C171.966 64.6515 169.566 67.0515 167.166 69.4965C166.916 69.7515 166.916 70.1515 167.166 70.3515C167.266 70.5015 167.416 70.5515 167.616 70.5515C167.766 70.5515 167.916 70.5015 168.066 70.3515C170.416 67.9515 172.816 65.5515 175.166 63.3015C175.416 63.0515 175.416 62.6515 175.166 62.4015ZM441.266 62.4515C438.916 60.0515 436.516 57.6515 434.066 55.4015C433.816 55.1515 433.416 55.1515 433.166 55.4015C432.966 55.6515 432.966 56.0515 433.216 56.3015C435.666 58.5515 438.066 60.9515 440.366 63.3015C440.466 63.4015 440.616 63.5015 440.816 63.5015C440.966 63.5015 441.116 63.4515 441.216 63.3015C441.466 63.0515 441.466 62.6515 441.266 62.4515ZM190.066 48.9015C189.816 48.6515 189.416 48.6015 189.166 48.8515C187.366 50.4015 185.566 51.9515 183.816 53.5515C183.366 53.9015 182.966 54.3015 182.566 54.7015C182.266 54.9515 181.916 55.2015 181.616 55.5015C181.366 55.7465 181.366 56.1515 181.566 56.4015C181.716 56.5015 181.866 56.6015 182.066 56.6015C182.216 56.6015 182.366 56.5515 182.466 56.4515C183.016 55.9515 183.566 55.4515 184.116 54.9515L185.916 53.3015C187.266 52.0965 188.616 50.9515 189.966 49.8015C190.216 49.5515 190.266 49.1515 190.066 48.9015ZM426.566 48.7015C424.016 46.5015 421.366 44.4015 418.766 42.3515C418.466 42.1515 418.066 42.2015 417.866 42.4515C417.666 42.7515 417.716 43.1515 417.966 43.3465C420.616 45.3515 423.216 47.5015 425.766 49.6515C425.866 49.7515 426.016 49.8015 426.166 49.8015C426.316 49.8015 426.516 49.7015 426.616 49.5515C426.866 49.3015 426.816 48.9015 426.566 48.7015ZM205.766 36.4015C205.566 36.1515 205.166 36.0515 204.916 36.3015C202.266 38.2015 199.616 40.3015 196.916 42.4015C196.666 42.6515 196.616 43.0015 196.816 43.3015C196.966 43.4515 197.116 43.5515 197.316 43.5515C197.466 43.5515 197.566 43.5015 197.716 43.4015C200.366 41.2515 203.016 39.2015 205.666 37.3015C205.916 37.0965 205.966 36.7015 205.766 36.4015ZM410.616 36.4015C407.866 34.4515 405.066 32.6015 402.216 30.8015C401.966 30.6515 401.566 30.7015 401.366 31.0015C401.166 31.3015 401.266 31.7015 401.566 31.8515C404.366 33.6515 407.166 35.5015 409.916 37.4015C410.016 37.5015 410.166 37.5015 410.266 37.5015C410.466 37.5015 410.666 37.4515 410.766 37.2515C410.966 36.9515 410.916 36.6015 410.616 36.4015ZM222.466 25.2015C222.266 24.9515 221.866 24.8515 221.616 25.0015C218.766 26.7515 215.916 28.5515 213.116 30.4515C212.816 30.6515 212.766 31.0515 212.966 31.3515C213.066 31.5015 213.266 31.6015 213.466 31.6015C213.616 31.6015 213.716 31.5515 213.816 31.5015C216.616 29.5965 219.416 27.8015 222.266 26.1015C222.566 25.9015 222.616 25.5015 222.466 25.2015ZM393.616 25.6515C390.666 24.0015 387.666 22.3515 384.716 20.8465C384.416 20.7015 384.016 20.8465 383.866 21.1515C383.716 21.4515 383.866 21.8015 384.166 21.9965C387.116 23.5015 390.066 25.0515 392.966 26.7015C393.066 26.8015 393.166 26.8015 393.266 26.8015C393.516 26.8015 393.716 26.7015 393.816 26.5015C394.016 26.2015 393.916 25.8015 393.616 25.6515ZM240.116 15.7015C239.966 15.3515 239.616 15.2515 239.266 15.4015C236.316 16.8015 233.266 18.3465 230.316 19.9515C230.016 20.1515 229.916 20.5015 230.066 20.8015C230.166 21.0515 230.416 21.1515 230.616 21.1515C230.716 21.1515 230.816 21.1015 230.916 21.0515C233.866 19.4515 236.866 17.9515 239.816 16.5015C240.116 16.3515 240.266 16.0015 240.116 15.7015ZM375.616 16.5015C372.566 15.1515 369.466 13.8015 366.366 12.5515C366.066 12.4515 365.666 12.6015 365.566 12.9015C365.416 13.2465 365.566 13.6015 365.916 13.7515C369.016 14.9515 372.116 16.3015 375.116 17.6515C375.216 17.7015 375.266 17.7015 375.366 17.7015C375.616 17.7015 375.866 17.5515 375.966 17.3515C376.116 16.9965 375.966 16.6515 375.616 16.5015ZM257.966 7.80147C254.816 8.85147 251.616 10.0515 248.516 11.3015C248.166 11.4515 248.016 11.8015 248.166 12.0965C248.266 12.3515 248.516 12.5015 248.716 12.5015C248.816 12.5015 248.916 12.5015 248.966 12.4515C252.066 11.2015 255.216 10.0015 258.366 8.95146C258.666 8.85147 258.866 8.50146 258.716 8.20146C258.616 7.85146 258.266 7.70146 257.966 7.80147ZM356.916 9.05147C353.716 7.95147 350.516 6.95147 347.316 6.05147C346.966 5.95147 346.616 6.15146 346.516 6.50146C346.416 6.80147 346.616 7.15146 346.966 7.25146C350.116 8.15147 353.366 9.15146 356.516 10.2515H356.716C356.966 10.2515 357.216 10.1015 357.316 9.85147C357.416 9.49647 357.266 9.15147 356.916 9.05147ZM277.416 2.60146C274.116 3.24646 270.816 4.00146 267.616 4.90146C267.266 4.95147 267.066 5.30147 267.166 5.65146C267.216 5.90146 267.466 6.10147 267.766 6.10147H267.916C271.116 5.25146 274.416 4.49646 277.666 3.85146C277.966 3.80147 278.216 3.45146 278.166 3.10146C278.066 2.80146 277.766 2.55146 277.416 2.60146ZM337.516 3.60146C334.216 2.90146 330.866 2.25146 327.616 1.75146C327.266 1.70146 326.916 1.95146 326.866 2.25146C326.816 2.60146 327.066 2.95146 327.416 3.00146C330.666 3.50146 333.966 4.10146 337.266 4.80147C337.316 4.85146 337.366 4.85146 337.366 4.85146C337.666 4.85146 337.916 4.65146 338.016 4.35146C338.066 4.00146 337.866 3.70146 337.516 3.60146ZM297.466 0.151465H297.416C294.066 0.351465 290.666 0.651465 287.366 1.05146C287.016 1.10146 286.766 1.40146 286.816 1.75146C286.866 2.05147 287.116 2.30147 287.466 2.30147H287.516C290.816 1.90146 294.166 1.60146 297.516 1.40146C297.816 1.40146 298.116 1.10146 298.066 0.746465C298.066 0.451465 297.766 0.151465 297.466 0.151465ZM317.566 0.551465C314.266 0.251465 310.866 0.0514648 307.516 0.00146484C307.166 0.00146484 306.866 0.251465 306.866 0.601465C306.866 0.951465 307.116 1.25146 307.466 1.25146C310.816 1.30146 314.166 1.50146 317.466 1.80146H317.516C317.866 1.80146 318.116 1.55146 318.166 1.20146C318.166 0.846465 317.916 0.551465 317.566 0.551465Z" fill="#D8D5DB"/>
<path fill-rule="evenodd" clip-rule="evenodd" d="M497.317 135.051L490.817 146.351L489.967 147.801L480.562 164.051L478.517 167.651L418.217 272.051L408.217 289.351L398.217 272.051L362.467 210.151L356.967 200.651L344.712 179.401L316.017 129.701H500.417L497.317 135.051ZM311.717 127.201L344.712 184.351L354.112 200.651L359.617 210.151L395.362 272.051L408.217 294.351L421.117 272.051L480.762 168.701L482.862 165.101L499.167 136.901L503.667 129.051L504.067 128.401L504.767 127.201H311.717Z" fill="white"/>
<path fill-rule="evenodd" clip-rule="evenodd" d="M342.815 382.099C342.965 382.649 342.715 383.454 342.165 384.449C340.915 386.799 337.92 390.149 334.77 392.899C334.115 393.454 333.465 393.999 332.815 394.449C330.915 395.999 329.065 397.204 327.615 397.649C322.515 399.349 300.465 396.449 295.115 393.549C294.77 393.349 294.515 393.149 294.265 392.899C292.07 393.049 288.815 393.099 284.865 392.899C283.065 392.804 281.115 392.649 279.015 392.349C274.065 391.799 268.415 390.649 262.315 388.699C259.315 387.804 256.165 386.649 252.965 385.249C249.965 383.899 246.865 382.349 243.765 380.549C243.015 380.149 242.465 379.649 241.815 379.254C242.415 383.854 243.015 388.399 243.665 392.899C243.865 394.149 244.065 395.399 244.215 396.599C244.765 400.149 245.315 403.654 245.915 407.099C248.265 420.649 250.965 433.399 254.215 444.799C254.515 445.999 254.865 447.204 255.215 448.349C254.165 448.499 253.115 448.654 252.115 448.799C252.365 449.949 252.565 451.154 252.765 452.349C255.265 465.849 257.165 482.499 258.565 499.599C199.865 522.849 145.215 528.299 107.515 505.249C95.5153 497.949 85.2653 487.749 77.1153 474.299C75.8153 472.149 74.5153 469.999 73.2153 467.849C73.4653 460.799 73.7653 454.849 74.0153 450.799C73.0653 450.699 72.5653 450.699 72.5653 450.699C72.5653 442.549 72.9153 431.849 73.4653 419.499C73.5153 418.999 73.5153 418.499 73.5153 417.949C73.7153 414.449 73.9153 410.849 74.1653 407.099C74.3653 402.499 74.6653 397.804 74.9653 392.899C75.4153 385.799 75.9153 378.399 76.4653 370.899C64.2653 367.649 54.0653 364.149 48.3153 360.649C40.8153 356.099 37.9653 349.749 38.1653 343.499C38.0653 342.249 38.0653 340.899 38.3653 339.499C41.2153 330.049 51.0153 301.899 62.1153 273.949L49.8153 269.749C49.8153 269.749 85.7653 205.699 106.865 191.599C106.965 191.549 107.015 191.499 107.115 191.449C114.565 184.549 125.315 180.099 141.415 178.299C141.515 164.949 140.465 142.399 139.365 125.149C134.115 123.949 130.565 119.599 128.565 115.999C128.315 115.599 128.065 115.199 127.915 114.849C127.115 113.299 126.665 111.999 126.465 111.349C125.365 106.949 126.415 103.299 128.565 100.949C128.115 97.2988 127.465 91.2988 127.215 84.9988C126.715 73.3988 127.365 60.6988 132.615 59.5488C132.565 59.3988 132.465 59.2988 132.415 59.1988C131.065 55.0488 133.515 50.4488 133.615 50.2988L135.815 51.4488C135.815 51.4988 133.815 55.2988 134.765 58.3988C138.965 53.7488 153.115 52.2488 167.965 53.0988C168.815 53.0988 169.715 53.1988 170.565 53.2488C173.615 53.4988 176.665 53.7988 179.665 54.2488C180.665 54.3488 181.615 54.4988 182.565 54.6988C183.065 54.7488 183.615 54.8488 184.115 54.9488C187.365 55.4988 190.465 56.1988 193.315 56.9988C198.215 58.3488 202.315 60.0488 205.065 61.9988C205.965 62.5988 206.665 63.2488 207.265 63.8988C209.765 66.7988 210.165 68.8488 209.065 70.1988C208.415 70.9488 207.365 71.4988 205.965 71.8988C206.565 76.0988 206.815 79.7488 206.915 83.0988C207.215 83.8988 207.515 84.7488 207.815 85.5988C208.065 86.3488 208.315 87.1488 208.565 87.9488C208.615 87.9988 208.665 87.9988 208.715 88.0488C209.015 88.2988 209.315 88.4988 209.615 88.7488C210.715 89.7488 211.715 90.9988 212.465 92.6488L210.215 93.6988C210.165 93.5988 210.115 93.5488 210.065 93.4488C210.665 95.9988 211.215 98.6488 211.615 101.449C212.215 105.599 212.865 109.749 213.515 113.799C213.715 115.349 213.915 116.899 214.115 118.399C214.565 121.499 214.965 124.549 215.215 127.449C215.315 128.349 215.415 129.199 215.415 130.049C216.465 143.249 215.215 154.199 207.315 159.699C205.815 160.799 204.015 161.699 201.965 162.299C199.365 163.149 196.265 163.599 192.665 163.649C192.765 167.149 192.965 170.549 193.265 173.749C193.415 174.999 193.565 176.249 193.765 177.399C193.915 178.599 194.115 179.799 194.365 180.899C207.715 184.099 217.765 189.499 224.115 196.849C224.415 197.149 224.765 197.449 225.065 197.799C228.615 201.249 232.065 206.554 235.315 212.899C239.415 220.849 243.265 230.504 246.665 240.149C246.915 240.899 247.165 241.699 247.465 242.449C247.715 243.299 248.015 244.099 248.265 244.949C249.665 249.099 250.965 253.249 252.165 257.204C253.065 260.149 253.865 263.004 254.665 265.699C258.515 279.254 260.765 289.254 260.765 289.254L254.665 290.699L252.165 291.299L250.365 291.754C250.965 294.149 251.565 296.499 252.165 298.899C252.215 299.149 252.315 299.449 252.365 299.704C253.165 302.804 253.915 305.954 254.665 308.999C258.515 324.649 261.765 339.149 263.215 348.749C267.515 352.299 270.665 357.849 275.315 363.004C280.015 368.199 286.365 372.899 297.115 374.749C297.165 374.749 297.165 374.799 297.215 374.799C301.42 371.499 309.215 367.604 313.965 366.154C314.615 365.999 315.17 365.849 315.665 365.749C316.065 365.649 316.42 365.599 316.715 365.599C318.72 365.199 319.015 365.349 320.215 366.099C320.665 366.449 321.265 366.899 322.215 367.449C326.115 369.749 330.215 371.899 333.765 373.999C338.165 376.554 341.615 378.999 342.615 381.599C342.715 381.754 342.765 381.949 342.815 382.099Z" fill="#D1CDD3"/>
<path fill-rule="evenodd" clip-rule="evenodd" d="M357.668 367.426C354.103 365.291 355.143 365.021 351.113 365.761C346.763 366.566 337.403 371.056 332.668 374.796C332.618 374.791 332.583 374.766 332.533 374.756C311.093 371.081 307.323 355.916 298.653 348.736C293.848 317.256 269.638 231.586 269.638 231.586L233.158 245.151C238.473 281.246 259.863 349.896 265.413 365.386C266.323 367.261 267.498 368.751 268.813 369.961C270.633 373.806 273.903 377.516 279.188 380.571C301.058 393.216 321.758 393.391 329.678 392.886C329.933 393.141 330.223 393.361 330.553 393.546C335.918 396.476 357.928 399.346 363.068 397.661C368.293 395.946 378.993 385.116 378.223 382.116C376.973 377.216 366.603 372.776 357.668 367.426Z" fill="#FFAD69"/>
<path fill-rule="evenodd" clip-rule="evenodd" d="M236.904 208.447C226.604 231.597 230.389 304.952 230.389 304.952L296.214 289.262C296.214 289.262 264.064 147.377 236.904 208.447Z" fill="#377ADB"/>
<path fill-rule="evenodd" clip-rule="evenodd" d="M292.615 484.399C281.22 490.104 269.815 495.199 258.565 499.599C199.865 522.849 145.22 528.299 107.515 505.249C108.065 483.599 108.815 461.049 109.415 450.799C109.515 449.599 109.615 448.549 109.665 447.699L129.865 447.299H130.765L130.815 447.249L240.115 445.104H240.22L247.215 444.949L254.215 444.799L286.515 444.149C286.87 445.649 287.215 447.249 287.515 448.854C289.615 459.054 291.265 471.299 292.615 484.399Z" fill="#232323"/>
<path fill-rule="evenodd" clip-rule="evenodd" d="M188.55 177.429C149.28 178.724 136.005 191.979 129.235 214.904C121.545 240.934 108.005 398.154 108.005 450.689C108.005 450.689 225.53 459.019 290.635 448.344C270.22 379.389 268.015 255.409 267.605 218.469C267.3 190.759 238.33 175.784 188.55 177.429Z" fill="#4D8DFF"/>
<mask id="mask1_932_1091" style="mask-type:luminance" maskUnits="userSpaceOnUse" x="0" y="0" width="533" height="521">
<path fill-rule="evenodd" clip-rule="evenodd" d="M0 520.035H532.615V0H0V520.035Z" fill="white"/>
</mask>
<g mask="url(#mask1_932_1091)">
<path fill-rule="evenodd" clip-rule="evenodd" d="M194.965 314.3H252.165V244.95H194.965V314.3ZM192.465 316.8H254.665V242.45H192.465V316.8Z" fill="white"/>
<path fill-rule="evenodd" clip-rule="evenodd" d="M223.145 113.139C227.01 110.224 247.19 112.869 241.38 71.784C239.26 56.794 225.185 66.799 215.22 68.799C205.25 70.799 211.59 113.879 211.59 113.879L223.145 113.139Z" fill="#232323"/>
<path fill-rule="evenodd" clip-rule="evenodd" d="M172.9 103.298C174.575 114.188 177.925 173.103 176.53 186.788C175.135 200.473 241.315 204.378 232.655 189.303C224 174.223 230.145 124.238 230.145 124.238L172.9 103.298Z" fill="#FFAD69"/>
<path fill-rule="evenodd" clip-rule="evenodd" d="M177.48 104.963L230.135 124.243C230.135 124.243 226.58 153.353 228.725 173.853C188.575 170.748 178.27 120.038 177.595 110.273C177.48 108.433 177.425 106.658 177.48 104.963Z" fill="#D88344"/>
<path fill-rule="evenodd" clip-rule="evenodd" d="M247.041 101.443C251.921 135.078 260.206 168.618 219.436 163.093C178.661 157.573 172.331 105.298 172.446 95.4427C173.081 42.8277 237.446 35.3027 247.041 101.443Z" fill="#FFAD69"/>
<path fill-rule="evenodd" clip-rule="evenodd" d="M242.693 63.8864C233.098 52.7414 179.153 48.5364 170.223 58.4064C169.243 55.3064 171.243 51.4964 171.263 51.4614L169.063 50.2764C168.958 50.4664 166.523 55.0614 167.848 59.1914C167.893 59.3214 168.003 59.4114 168.048 59.5414C158.178 61.7164 164.478 104.596 164.478 104.596L176.033 103.856C179.898 100.946 193.313 80.4564 196.268 68.0914C217.393 71.6664 254.888 78.0514 242.693 63.8864Z" fill="#232323"/>
<path fill-rule="evenodd" clip-rule="evenodd" d="M236.956 368.613C232.826 368.843 216.801 371.628 211.176 370.323C192.271 365.908 143.551 344.053 117.326 331.838C133.461 296.813 157.211 234.823 157.211 234.823L119.866 223.863C102.536 255.968 78.6009 323.773 73.7809 339.508C73.5109 340.918 73.4909 342.243 73.5759 343.513C73.4059 349.738 76.2559 356.093 83.7409 360.653C104.501 373.298 182.816 385.568 204.506 387.963C204.906 388.773 205.436 389.508 206.296 389.993C211.601 392.973 235.741 395.203 240.706 396.083C246.931 397.183 265.826 398.783 265.011 396.253C263.676 392.108 256.671 367.508 236.956 368.613Z" fill="#FFAD69"/>
<path fill-rule="evenodd" clip-rule="evenodd" d="M142.281 191.619C121.216 205.699 85.2559 269.744 85.2559 269.744L149.291 291.619C149.291 291.619 197.851 154.479 142.281 191.619Z" fill="#4D8DFF"/>
<path fill-rule="evenodd" clip-rule="evenodd" d="M212.71 99.78C212.58 101.42 213.465 102.825 214.69 102.925C215.92 103.02 217.02 101.775 217.155 100.135C217.29 98.5 216.4 97.09 215.17 96.99C213.945 96.895 212.84 98.14 212.71 99.78Z" fill="#232323"/>
<path fill-rule="evenodd" clip-rule="evenodd" d="M238.682 100.468C238.552 102.108 239.437 103.513 240.662 103.613C241.892 103.708 242.992 102.463 243.127 100.823C243.257 99.1884 242.367 97.7784 241.142 97.6784C239.917 97.5834 238.812 98.8284 238.682 100.468Z" fill="#232323"/>
<path fill-rule="evenodd" clip-rule="evenodd" d="M206.321 90.5758L204.226 89.2108C208.646 82.4408 216.066 84.0108 216.386 84.0808L215.841 86.5208C215.601 86.4708 209.776 85.2808 206.321 90.5758Z" fill="#232323"/>
<path fill-rule="evenodd" clip-rule="evenodd" d="M245.637 93.6937C242.992 87.9387 237.052 88.2537 236.817 88.2787L236.642 85.7837C236.962 85.7637 244.532 85.2987 247.907 92.6487L245.637 93.6937Z" fill="#232323"/>
<path fill-rule="evenodd" clip-rule="evenodd" d="M221.054 130.747C216.829 130.747 208.704 129.547 203.659 121.157L205.799 119.867C211.914 130.037 222.884 128.182 223.349 128.097L223.804 130.552C223.764 130.562 222.709 130.747 221.054 130.747Z" fill="#232323"/>
<path fill-rule="evenodd" clip-rule="evenodd" d="M240.279 119.355L228.139 119.19L228.174 116.69L236.929 116.81L231.524 98.3749L233.919 97.6699L240.279 119.355Z" fill="#D88344"/>
<path fill-rule="evenodd" clip-rule="evenodd" d="M182.788 107.577C186.468 115.877 191.083 123.907 179.518 125.397C167.953 126.892 162.573 113.907 161.918 111.362C158.418 97.7873 175.543 91.2573 182.788 107.577Z" fill="#FFAD69"/>
<path fill-rule="evenodd" clip-rule="evenodd" d="M495.891 407.084H17.4506C13.5456 407.084 10.3506 403.889 10.3506 399.984C10.3506 396.079 13.5456 392.884 17.4506 392.884H495.891C499.796 392.884 502.991 396.079 502.991 399.984C502.991 403.889 499.796 407.084 495.891 407.084Z" fill="white"/>
<path fill-rule="evenodd" clip-rule="evenodd" d="M194.512 407.084H13.9018C9.99676 407.084 6.80176 403.889 6.80176 399.984C6.80176 396.079 9.99676 392.884 13.9018 392.884H194.512C198.417 392.884 201.612 396.079 201.612 399.984C201.612 403.889 198.417 407.084 194.512 407.084Z" fill="#D8D5DB"/>
<path fill-rule="evenodd" clip-rule="evenodd" d="M472.463 381.611H324.053C318.388 381.611 314.628 377.011 315.658 371.341L331.843 282.336C332.878 276.661 338.308 272.066 343.983 272.066H492.388C498.058 272.066 501.818 276.661 500.788 282.336L484.603 371.341C483.568 377.011 478.138 381.611 472.463 381.611Z" fill="#2B2B2B"/>
<path fill-rule="evenodd" clip-rule="evenodd" d="M476.091 381.611H327.681C322.016 381.611 318.256 377.011 319.286 371.341L335.471 282.336C336.501 276.661 341.936 272.066 347.606 272.066H496.011C501.686 272.066 505.446 276.661 504.416 282.336L488.226 371.341C487.196 377.011 481.761 381.611 476.091 381.611Z" fill="#232323"/>
<path fill-rule="evenodd" clip-rule="evenodd" d="M426.565 344.848H390.62L397.165 308.853H433.12L426.565 344.848ZM395.065 306.353L387.615 347.348H428.615L436.115 306.353H395.065Z" fill="white"/>
<path fill-rule="evenodd" clip-rule="evenodd" d="M298.025 384.458C298.025 389.093 301.82 392.888 306.46 392.888H461.705C466.345 392.888 470.14 389.093 470.14 384.458H298.025Z" fill="#232323"/>
<path fill-rule="evenodd" clip-rule="evenodd" d="M252.923 384.458C252.923 389.093 256.713 392.888 261.353 392.888H322.403C327.043 392.888 330.838 389.093 330.838 384.458H252.923Z" fill="#2B2B2B"/>
<path fill-rule="evenodd" clip-rule="evenodd" d="M423.45 108.227C418.195 108.227 413.935 112.492 413.935 117.747H432.97C432.97 112.492 428.71 108.227 423.45 108.227Z" fill="#377ADB"/>
<path fill-rule="evenodd" clip-rule="evenodd" d="M423.46 108.229V200.659C423.46 205.924 419.19 210.149 413.925 210.149H344.72V117.769C344.72 112.499 348.985 108.229 354.215 108.229H423.46Z" fill="#4D8DFF"/>
<path fill-rule="evenodd" clip-rule="evenodd" d="M404.431 200.659L335.191 200.649C335.191 205.904 339.456 210.164 344.716 210.164L413.921 210.149C408.661 210.149 404.431 205.924 404.431 200.659Z" fill="#6EA9FF"/>
<path fill-rule="evenodd" clip-rule="evenodd" d="M355.07 123.75H413.12V121.25H355.07V123.75Z" fill="white"/>
<path fill-rule="evenodd" clip-rule="evenodd" d="M355.07 133.22H413.12V130.72H355.07V133.22Z" fill="white"/>
<path fill-rule="evenodd" clip-rule="evenodd" d="M355.07 142.69H413.12V140.19H355.07V142.69Z" fill="white"/>
<path fill-rule="evenodd" clip-rule="evenodd" d="M355.07 152.16H413.12V149.66H355.07V152.16Z" fill="white"/>
<path fill-rule="evenodd" clip-rule="evenodd" d="M355.07 161.63H413.12V159.13H355.07V161.63Z" fill="white"/>
<path fill-rule="evenodd" clip-rule="evenodd" d="M355.07 171.1H413.12V168.6H355.07V171.1Z" fill="white"/>
<path fill-rule="evenodd" clip-rule="evenodd" d="M355.07 180.57H413.12V178.07H355.07V180.57Z" fill="white"/>
<path fill-rule="evenodd" clip-rule="evenodd" d="M355.07 190.04H413.12V187.54H355.07V190.04Z" fill="white"/>
<path fill-rule="evenodd" clip-rule="evenodd" d="M520.182 157.892C506.932 171.142 485.443 171.142 472.188 157.892C458.938 144.637 458.938 123.152 472.188 109.897C485.443 96.6423 506.932 96.6423 520.182 109.897C533.432 123.152 533.432 144.637 520.182 157.892Z" fill="#FFC84D"/>
<path fill-rule="evenodd" clip-rule="evenodd" d="M496.189 133.896L523.154 160.861C508.364 175.656 484.009 175.656 469.219 160.861C462.884 154.521 458.979 146.151 458.194 137.221L496.189 133.896Z" fill="#232323"/>
<path fill-rule="evenodd" clip-rule="evenodd" d="M496.189 133.896L458.309 138.311C457.809 134.036 458.039 129.706 458.989 125.501C459.934 121.301 461.584 117.291 463.874 113.641L496.189 133.896Z" fill="white"/>
<path fill-rule="evenodd" clip-rule="evenodd" d="M330.071 84.7997H301.321C297.611 84.7997 294.571 81.7647 294.571 78.0497V49.3047C294.571 45.5947 297.611 42.5547 301.321 42.5547H330.071C333.781 42.5547 336.821 45.5947 336.821 49.3047V78.0497C336.821 81.7647 333.781 84.7997 330.071 84.7997Z" fill="#232323"/>
<path fill-rule="evenodd" clip-rule="evenodd" d="M321.668 93.2025H292.918C289.208 93.2025 286.168 90.1675 286.168 86.4525V57.7075C286.168 53.9975 289.208 50.9575 292.918 50.9575H321.668C325.378 50.9575 328.418 53.9975 328.418 57.7075V86.4525C328.418 90.1675 325.378 93.2025 321.668 93.2025Z" fill="#FF4E4A"/>
</g>
</svg>
